<svg xmlns="http://www.w3.org/2000/svg" width="120" height="120" viewBox="0 0 120 120"><defs><style>.a{fill:#2783f3;}.b,.c{fill:#fff;}.c{stroke:#fff;stroke-linecap:round;stroke-linejoin:round;stroke-width:0.5px;}</style></defs><g transform="translate(-1260 -1423)"><circle class="a" cx="60" cy="60" r="60" transform="translate(1260 1423)"/><g transform="translate(1288 1451)"><path class="b" d="M-540.521,1236.888a3.324,3.324,0,0,1,2.585,2.8,10.912,10.912,0,0,1,.01,1.459h.778c3.979,0,7.959-.008,11.938.016a1.434,1.434,0,0,1,.911.375q6.364,6.32,12.685,12.684a1.188,1.188,0,0,1,.354.734c.02,5.229.015,10.459.014,15.688,0,.1-.016.2-.027.338h-2.1V1256.1h-12.775v-12.776H-537.9v.713q0,12.751,0,25.5c0,2.362-1.259,3.614-3.632,3.615h-16.591v25.57h44.72v-12.7h2.119v14.828H-560.3v-27.7c-1.426,0-2.8.064-4.159-.027a3.714,3.714,0,0,1-1.962-.621,8.165,8.165,0,0,1-1.358-1.861v-31.13a3.577,3.577,0,0,1,2.625-2.625Zm-25.125,18.106q0,7.249,0,14.5c0,1.215.31,1.532,1.5,1.532h22.62c1.165,0,1.5-.326,1.5-1.473q0-14.528,0-29.056c0-1.143-.34-1.475-1.5-1.475h-22.62c-1.159,0-1.493.331-1.493,1.479Q-565.647,1247.745-565.646,1254.994Zm50.482-1.072-8.832-8.815v8.815Z" transform="translate(567.776 -1236.888)"/><path class="b" d="M-264.76,1484.789a3.074,3.074,0,0,1,2.835,1.864,3,3,0,0,1-.569,3.475c-1.021,1.1-2.107,2.134-3.167,3.194q-7.422,7.424-14.852,14.838a4.116,4.116,0,0,1-1.113.772c-1.613.771-3.249,1.5-4.867,2.256a1.152,1.152,0,0,1-1.44-.094,1.17,1.17,0,0,1-.107-1.494,18.21,18.21,0,0,0,.8-1.758,17.583,17.583,0,0,1,4.586-6.635c5.174-5.016,10.222-10.16,15.31-15.263A3.605,3.605,0,0,1-264.76,1484.789Zm-20.233,23.329a11.484,11.484,0,0,0,4.013-2.454c3.919-4.031,7.93-7.973,11.905-11.949.155-.155.3-.32.333-.355l-1.421-1.645c-.167.2-.291.365-.437.512-3.989,3.992-7.946,8.017-11.992,11.95A12.158,12.158,0,0,0-284.993,1508.118Zm20.189-18.665c.445-.547,1.24-.883.972-1.736a1.307,1.307,0,0,0-.779-.759c-.839-.215-1.2.52-1.638.953Zm-1.653,1.656-1.3-1.478-.7.5,1.455,1.515Z" transform="translate(325.61 -1451.661)"/><path class="b" d="M-442.615,1534.893a10.7,10.7,0,0,1-10.632,10.685,10.681,10.681,0,0,1-10.7-10.664,10.683,10.683,0,0,1,10.682-10.688A10.715,10.715,0,0,1-442.615,1534.893Zm-2.14-.014a8.554,8.554,0,0,0-8.572-8.52,8.557,8.557,0,0,0-8.5,8.6,8.562,8.562,0,0,0,8.537,8.492A8.571,8.571,0,0,0-444.755,1534.879Z" transform="translate(477.826 -1485.828)"/><path class="b" d="M-280.324,1470.843v-2.023h12.754v2.023Z" transform="translate(318.737 -1437.826)"/><path class="b" d="M-280.191,1406.85v-2.041h12.726v2.041Z" transform="translate(318.622 -1382.369)"/><path class="b" d="M-280.182,1438.779v-2.043h12.745v2.043Z" transform="translate(318.614 -1410.03)"/><path class="b" d="M-280.211,1502.773v-2.05h12.753v2.05Z" transform="translate(318.639 -1465.466)"/><path class="b" d="M-310,1470.854h-2.072V1468.8H-310Z" transform="translate(346.241 -1437.81)"/><path class="b" d="M-312.086,1406.775v-2.055h2.047v2.055Z" transform="translate(346.255 -1382.292)"/><path class="b" d="M-310,1500.815v2.039h-2.069v-2.039Z" transform="translate(346.24 -1465.545)"/><path class="b" d="M-311.963,1436.621h2.041v2.071h-2.041Z" transform="translate(346.148 -1409.93)"/><path class="b" d="M-543.511,1268.6v-7.36h23.364v7.36Zm2.137-2.131h19.113v-3.1h-19.113Z" transform="translate(546.754 -1257.985)"/><path class="b" d="M-479.915,1439.517c0-.333,0-.667,0-1a2.119,2.119,0,0,1,2.135-2.213c.707-.029,1.417-.031,2.124,0a2.121,2.121,0,0,1,2.128,2.223c.009.666.011,1.333,0,2a2.087,2.087,0,0,1-2.045,2.166,19.366,19.366,0,0,1-2.31,0,2.083,2.083,0,0,1-2.032-2.176C-479.92,1440.184-479.915,1439.851-479.915,1439.517Zm2.157,1h2.072v-2.047h-2.072Z" transform="translate(491.658 -1409.636)"/><path class="b" d="M-424.023,1439.483c0-.333-.008-.667,0-1a2.107,2.107,0,0,1,2.1-2.184c.727-.036,1.459-.036,2.186,0a2.131,2.131,0,0,1,2.112,2.183c.019.687.022,1.375,0,2.061a2.109,2.109,0,0,1-2.079,2.144c-.685.04-1.374.028-2.061.012a2.12,2.12,0,0,1-2.255-2.28C-424.029,1440.108-424.024,1439.8-424.023,1439.483Zm4.242-1.006h-2.068v2.031h2.068Z" transform="translate(443.236 -1409.628)"/><path class="b" d="M-529.547,1439.531c0,.333.008.667,0,1a2.078,2.078,0,0,1-2.05,2.158,20.338,20.338,0,0,1-2.248,0,2.11,2.11,0,0,1-2.093-2.191q-.02-1,0-2a2.126,2.126,0,0,1,2.094-2.2c.727-.039,1.459-.036,2.186,0a2.107,2.107,0,0,1,2.111,2.17C-529.538,1438.823-529.547,1439.177-529.547,1439.531Zm-2.163-1.061h-2.067v2.048h2.067Z" transform="translate(540.203 -1409.629)"/><path class="b" d="M-479.909,1327.878c0-.417-.022-.834,0-1.249a2.068,2.068,0,0,1,1.94-1.937c.811-.037,1.625-.034,2.436,0a2.074,2.074,0,0,1,1.994,2.019c.028.77.026,1.542,0,2.312a2.091,2.091,0,0,1-2.041,2.042c-.749.025-1.5.022-2.249,0a2.1,2.1,0,0,1-2.089-2.121c-.009-.354,0-.708,0-1.062Zm4.224-1.035h-2.06v2.049h2.06Z" transform="translate(491.659 -1312.934)"/><path class="b" d="M-532.725,1324.749c.375,0,.75-.013,1.124,0a2.06,2.06,0,0,1,2.028,1.977c.036.79.033,1.583,0,2.373a2.066,2.066,0,0,1-2.046,2.027c-.728.023-1.458.017-2.186,0a2.121,2.121,0,0,1-2.147-2.138c-.02-.687-.017-1.375,0-2.061a2.127,2.127,0,0,1,2.226-2.185c.333-.005.666,0,1,0Zm.984,4.232v-2.071h-2.042v2.071Z" transform="translate(540.214 -1313.004)"/><path class="b" d="M-420.885,1331.094c-.4,0-.792.017-1.187,0a2.059,2.059,0,0,1-1.986-1.955c-.041-.81-.041-1.625,0-2.435a2.054,2.054,0,0,1,2.081-1.987q1.093-.026,2.186,0a2.048,2.048,0,0,1,2.077,1.862,14.253,14.253,0,0,1-.006,2.68,2.056,2.056,0,0,1-2.1,1.84c-.354.01-.708,0-1.062,0Zm1.025-2.152v-2.069H-421.9v2.069Z" transform="translate(443.29 -1312.966)"/><path class="b" d="M-479.908,1383.8c0-.417-.021-.834,0-1.249a2.034,2.034,0,0,1,1.875-1.926,22.977,22.977,0,0,1,2.559-.006,2.042,2.042,0,0,1,1.936,2c.028.728.018,1.458.006,2.186a2.129,2.129,0,0,1-2.167,2.186c-.666.02-1.333.016-2,0a2.137,2.137,0,0,1-2.22-2.257c0-.312,0-.625,0-.937Zm2.168-1.035v2.052h2.055v-2.052Z" transform="translate(491.657 -1361.383)"/><path class="b" d="M-529.559,1383.8c0,.354.01.708,0,1.062a2.106,2.106,0,0,1-2.084,2.133c-.727.032-1.458.03-2.186,0a2.134,2.134,0,0,1-2.119-2.176q-.026-1.03,0-2.061a2.1,2.1,0,0,1,2.129-2.149c.686-.023,1.375-.018,2.061,0a2.088,2.088,0,0,1,2.2,2.195c.008.333,0,.666,0,1Zm-2.166,1.036v-2.05h-2.06v2.05Z" transform="translate(540.214 -1361.387)"/><path class="b" d="M-420.832,1380.64c.333,0,.667-.009,1,0a2.113,2.113,0,0,1,2.161,2.122c.026.707.026,1.417,0,2.124a2.137,2.137,0,0,1-2.151,2.146c-.707.024-1.417.026-2.124,0a2.106,2.106,0,0,1-2.115-2.166q-.029-1.03,0-2.061a2.082,2.082,0,0,1,2.168-2.164C-421.54,1380.63-421.186,1380.639-420.832,1380.64Zm1,2.174h-2.047v2.051h2.047Z" transform="translate(443.279 -1361.426)"/><path class="c" d="M-20.968-69.168h3.34a1.833,1.833,0,0,0-.182-.527,1.207,1.207,0,0,0-.358-.406,1.731,1.731,0,0,0-.572-.262,3.1,3.1,0,0,0-.809-.093h-1.419v-.964h6.218v.964h-2.259a2.31,2.31,0,0,1,.327.575,2.68,2.68,0,0,1,.169.713h1.763v.964h-1.8a2.732,2.732,0,0,1-.678,1.408,2.765,2.765,0,0,1-1.353.8v.028a2.442,2.442,0,0,1,.427.255,2.943,2.943,0,0,1,.372.334,4.008,4.008,0,0,1,.355.437q.176.248.375.565l1.756,2.83H-16.6l-1.57-2.63q-.227-.379-.43-.668a2.482,2.482,0,0,0-.434-.482,1.608,1.608,0,0,0-.51-.289,1.992,1.992,0,0,0-.651-.1h-.771v-.943h1.412a1.963,1.963,0,0,0,.668-.114,1.936,1.936,0,0,0,.568-.317,1.9,1.9,0,0,0,.427-.489,2.025,2.025,0,0,0,.251-.63h-3.326Z" transform="translate(42.365 115.939)"/></g></g></svg>