<svg xmlns="http://www.w3.org/2000/svg" width="62.746" height="44.003" viewBox="0 0 62.746 44.003"><defs><style>.a,.b{fill:#fbfbfb;}.b{stroke:#fbfbfb;stroke-linecap:round;stroke-linejoin:round;stroke-width:0.5px;}</style></defs><g transform="translate(0)"><path class="a" d="M-386.349,758.247a21.751,21.751,0,0,0-8.13-12.181A22.325,22.325,0,0,0-407.7,741.7a21.915,21.915,0,0,0-14.925,5.925,2.823,2.823,0,0,1-2.058.807h-.025c-3.637-.023-7.612-.033-12.509-.033l-2.6,0a3.252,3.252,0,0,0-1.048.13,1.588,1.588,0,0,0-.98,1.842,1.611,1.611,0,0,0,1.607,1.286c.942.01,1.882.01,2.825.01l3.105,0,1.178,0a3.1,3.1,0,0,1,3.331,3.1,3,3,0,0,1-.855,2.19,3.478,3.478,0,0,1-2.509.962c-.767,0-3.679,0-3.679,0q-1.605,0-3.211,0a3.28,3.28,0,0,0-.764.063,1.619,1.619,0,0,0-1.19,1.832,1.6,1.6,0,0,0,1.629,1.363q2.492.011,4.987.008c1.772,0,3.542,0,5.311.01a4.486,4.486,0,0,1,1.564.258.735.735,0,0,1,.078.033,3.827,3.827,0,0,1,1.13,2.837,3.791,3.791,0,0,1-1.17,2.867,3.206,3.206,0,0,1-1.236.248q-1.823.011-3.649.01l-9.752-.008q-1.744,0-3.491.01a1.851,1.851,0,0,0-1.388.546,1.627,1.627,0,0,0-.391,1.271c.078.917.782,1.466,1.885,1.466q2.744,0,5.491,0h7.845l1.832,0c.529,0,1.055,0,1.584.007a3.036,3.036,0,0,1,2.935,1.983,2.988,2.988,0,0,1-.268,2.822A3.334,3.334,0,0,1-429.844,777c-.867.01-1.737.013-2.607.013-.712,0-1.421,0-2.133,0l-1.351-.005a1.584,1.584,0,0,0-1.627,1.045,1.5,1.5,0,0,0,.123,1.449,1.855,1.855,0,0,0,1.564.777q2.158.008,4.318.005h1.163c2.489,0,4.925,0,7.339.018a2.859,2.859,0,0,1,1.647.574,22.128,22.128,0,0,0,12.512,4.792c.449.025.9.04,1.346.04h0a21.738,21.738,0,0,0,17.278-8.547A21.778,21.778,0,0,0-386.349,758.247Zm-40.331,5.734a2.941,2.941,0,0,1,.05-.611,18.911,18.911,0,0,1,5.546-13.12,18.926,18.926,0,0,1,6.146-4.135,18.9,18.9,0,0,1,7.261-1.441,19.06,19.06,0,0,1,19.05,19.023,19.066,19.066,0,0,1-19.055,19.03,19,19,0,0,1-18.908-17.755S-426.67,764.229-426.681,763.981Z" transform="translate(448.391 -741.7)"/><path class="b" d="M-20.968-65.655h8.55A4.693,4.693,0,0,0-12.885-67a3.09,3.09,0,0,0-.917-1.04,4.432,4.432,0,0,0-1.463-.67,7.938,7.938,0,0,0-2.071-.238h-3.632V-71.42H-5.048v2.468h-5.782a5.914,5.914,0,0,1,.837,1.472,6.862,6.862,0,0,1,.432,1.825h4.513v2.468h-4.6a6.994,6.994,0,0,1-1.736,3.605,7.079,7.079,0,0,1-3.464,2.054v.071a6.25,6.25,0,0,1,1.093.652,7.534,7.534,0,0,1,.952.855,10.259,10.259,0,0,1,.908,1.119q.45.635.961,1.446l4.5,7.246h-3.35l-4.02-6.734q-.582-.97-1.1-1.71a6.353,6.353,0,0,0-1.111-1.234,4.117,4.117,0,0,0-1.3-.74,5.1,5.1,0,0,0-1.666-.247h-1.974V-59.22h3.614a5.026,5.026,0,0,0,1.71-.291,4.956,4.956,0,0,0,1.454-.811A4.876,4.876,0,0,0-13.1-61.574a5.183,5.183,0,0,0,.643-1.613h-8.515Z" transform="translate(53.746 82.282)"/></g></svg>