<svg xmlns="http://www.w3.org/2000/svg" width="180.315" height="42.24" viewBox="0 0 180.315 42.24"><defs><style>.a,.c{fill:#fff;}.a{font-size:28px;font-family:Poppins-Bold, Poppins;font-weight:700;}.b{fill:#02042b;stroke:#fff;stroke-miterlimit:10;stroke-width:0.5px;}</style></defs><g transform="translate(676.226 -1167.253)"><text class="a" transform="translate(-632.91 1196.253)"><tspan x="0" y="0">Feebharo</tspan></text><g transform="translate(-675.976 1168.886)"><path class="b" d="M-640.88,1204.086c0,.753.015,1.506-.012,2.258a.636.636,0,0,1-.264.455q-8.487,4.922-16.984,9.827a.526.526,0,0,1-.61-.045q-7.757-4.486-15.518-8.965c-.468-.27-.948-.523-1.4-.82-.133-.088-.185-.3-.273-.456-.006-.01,0-.026,0-.039q-.019-7.248-.036-14.5,0-2.554.048-5.108a.631.631,0,0,1,.264-.455q8.47-4.912,16.952-9.805a.527.527,0,0,1,.61,0q8.458,4.895,16.926,9.771a.484.484,0,0,1,.3.532,2.958,2.958,0,0,0,0,.4q.02,6.6.039,13.19c0,1.254,0,2.507,0,3.761Zm-8.107-20.073c-.168-.105-.285-.183-.406-.254-.947-.549-1.906-1.079-2.838-1.652a.862.862,0,0,0-1.025,0q-5.211,3.042-10.447,6.041c-.126.072-.325.168-.42.119-.588-.3-1.157-.647-1.782-1.006l11.281-6.516c-1.176-.68-2.288-1.312-3.385-1.967a.67.67,0,0,0-.784-.008q-7.2,4.18-14.421,8.338a2.18,2.18,0,0,0-.213.159.864.864,0,0,0,.083.067q3.642,2.076,7.284,4.151,3.695,2.111,7.38,4.238a.556.556,0,0,0,.647,0c2.548-1.47,5.1-2.927,7.654-4.393q3.139-1.8,6.27-3.619c.242-.139.479-.288.76-.458-1.234-.713-2.406-1.4-3.59-2.06a.512.512,0,0,0-.417.051q-5.33,3.073-10.655,6.153a.724.724,0,0,1-.58.069c-.545-.277-1.06-.615-1.635-.959Zm-4.989,23.911c0-.706-.013-1.326.011-1.945a.525.525,0,0,1,.241-.347c.561-.346,1.136-.669,1.706-1q4.461-2.6,8.924-5.194a.584.584,0,0,0,.377-.543c-.01-1.188,0-2.377,0-3.565,0-.317-.107-.362-.39-.2q-.529.311-1.059.618-4.639,2.692-9.279,5.383c-.142.082-.295.145-.544.266,0-.626.021-1.161-.007-1.693a.674.674,0,0,1,.4-.7c.566-.312,1.124-.639,1.684-.963q4.434-2.572,8.87-5.141a.567.567,0,0,0,.335-.559c-.006-1.161.014-2.323.022-3.484,0-.137-.014-.273-.023-.454-.168.092-.282.151-.394.216q-2.479,1.441-4.957,2.882-4.642,2.685-9.293,5.356a.7.7,0,0,0-.391.7c0,1.479-.013,2.957-.014,4.436q0,6.022,0,12.043c0,.125.014.25.023.414.122-.059.2-.093.28-.137q7.25-4.216,14.5-8.429a.5.5,0,0,0,.274-.508c-.01-1.122,0-2.245-.005-3.367,0-.5-.118-.572-.552-.32l-9.029,5.25C-652.816,1207.255-653.362,1207.569-653.975,1207.923Zm-20.149-19.538c0,.213,0,.352,0,.49.008,2.191.024,4.383.023,6.574q0,4.95-.029,9.9a.55.55,0,0,0,.32.56c.9.5,1.782,1.026,2.672,1.542.235.136.471.271.77.442v-.488c0-1.73,0-3.459,0-5.189a5.362,5.362,0,0,1,.087-.682,6.631,6.631,0,0,1,.62.281q5.153,2.981,10.3,5.969c.085.049.178.086.3.146,0-1.406.007-2.764-.012-4.121a.561.561,0,0,0-.276-.366c-1.115-.652-2.243-1.282-3.361-1.928-2.422-1.4-4.839-2.8-7.263-4.2a.673.673,0,0,1-.406-.69c.026-.407,0-.818.006-1.227a1.827,1.827,0,0,1,.082-.365,1.654,1.654,0,0,1,.353.109q5.159,2.976,10.315,5.959c.142.082.293.149.5.256.017-.228.038-.38.039-.531,0-1.043-.021-2.087.012-3.129a.891.891,0,0,0-.515-.913q-6.19-3.56-12.364-7.147C-672.641,1189.23-673.348,1188.829-674.124,1188.385Z" transform="translate(675.976 -1176.338)"/><path class="c" d="M-637.355,1194.531l-11.239,6.491c.575.344,1.09.682,1.635.959a.725.725,0,0,0,.58-.068q5.333-3.067,10.655-6.154a.513.513,0,0,1,.417-.051c1.184.663,2.356,1.347,3.59,2.06-.281.17-.518.318-.76.458q-3.134,1.811-6.271,3.619c-2.55,1.466-5.106,2.922-7.654,4.392a.556.556,0,0,1-.647,0q-3.682-2.133-7.38-4.238-3.639-2.079-7.284-4.151a.837.837,0,0,1-.083-.067,2.246,2.246,0,0,1,.213-.159q7.212-4.167,14.421-8.338a.67.67,0,0,1,.784.008c1.1.656,2.209,1.287,3.385,1.968l-11.28,6.516c.625.359,1.194.7,1.782,1.006.1.049.294-.047.42-.119q5.23-3.01,10.447-6.041a.862.862,0,0,1,1.025,0c.932.573,1.891,1.1,2.838,1.652C-637.639,1194.347-637.523,1194.425-637.355,1194.531Z" transform="translate(664.344 -1186.855)"/><path class="c" d="M-570.895,1262.986c.613-.354,1.159-.668,1.7-.984l9.029-5.25c.434-.253.551-.184.552.32,0,1.122,0,2.245.005,3.367a.5.5,0,0,1-.274.507q-7.255,4.208-14.5,8.429c-.076.045-.158.078-.28.137-.009-.164-.023-.289-.023-.414q0-6.021,0-12.043c0-1.478.018-2.957.014-4.436a.7.7,0,0,1,.391-.7q4.655-2.663,9.293-5.357,2.482-1.435,4.957-2.882c.112-.065.226-.124.394-.216.01.181.024.317.023.454-.008,1.161-.028,2.323-.022,3.484a.567.567,0,0,1-.335.559q-4.439,2.563-8.87,5.141c-.559.325-1.117.651-1.684.963a.674.674,0,0,0-.4.7c.028.532.007,1.067.007,1.693.249-.121.4-.184.544-.266q4.641-2.689,9.279-5.383.53-.308,1.059-.618c.282-.166.388-.12.39.2,0,1.188-.006,2.377,0,3.565a.584.584,0,0,1-.377.543q-4.464,2.593-8.924,5.194c-.57.332-1.145.654-1.706,1a.527.527,0,0,0-.241.347C-570.908,1261.66-570.895,1262.28-570.895,1262.986Z" transform="translate(592.895 -1231.401)"/><path class="c" d="M-665.7,1243.353c.776.444,1.483.845,2.187,1.252q6.181,3.576,12.364,7.147a.891.891,0,0,1,.515.913c-.033,1.042-.009,2.086-.012,3.129,0,.151-.022.3-.039.531-.212-.107-.363-.174-.5-.256q-5.157-2.979-10.315-5.959a1.658,1.658,0,0,0-.353-.11,1.829,1.829,0,0,0-.082.365c-.009.409.02.82-.006,1.227a.672.672,0,0,0,.406.69c2.424,1.395,4.841,2.8,7.264,4.2,1.118.646,2.246,1.276,3.361,1.928a.561.561,0,0,1,.276.366c.02,1.358.012,2.715.012,4.121-.125-.06-.218-.1-.3-.146q-5.15-2.984-10.3-5.969a6.671,6.671,0,0,0-.62-.281,5.359,5.359,0,0,0-.088.682c-.008,1.729,0,3.459,0,5.188v.488l-.77-.442c-.89-.516-1.774-1.041-2.672-1.542a.551.551,0,0,1-.32-.561q.025-4.95.029-9.9c0-2.191-.015-4.383-.023-6.574C-665.7,1243.7-665.7,1243.566-665.7,1243.353Z" transform="translate(667.552 -1231.305)"/></g></g></svg>