<svg xmlns="http://www.w3.org/2000/svg" width="57.183" height="58.595" viewBox="0 0 57.183 58.595"><defs><style>.a{fill:#fbfbfb;}</style></defs><g transform="translate(590.276 -218.279)"><path class="a" d="M-542.008,320.112a1.463,1.463,0,0,1-.818-1.548c.045-.8.01-1.6.01-2.556-1.289.087-2.539.1-3.771.265-4.8.633-9.585,1.369-14.39,1.954a21.1,21.1,0,0,1-9.763-1.367c-5.072-1.82-10.174-3.554-15.27-5.305a4.8,4.8,0,0,1-3.556-4.489,4.67,4.67,0,0,1,2.78-4.666,1.143,1.143,0,0,0,.131-.1c-.126-.2-.258-.4-.383-.6a21.109,21.109,0,0,1-2.907-15.029c.022-.131.05-.263.085-.391a1.12,1.12,0,0,1,1.351-.848,1.121,1.121,0,0,1,.879,1.278c-.1.889-.265,1.774-.315,2.666a18.56,18.56,0,0,0,3.7,12.332.9.9,0,0,0,.438.32q6.725,1.932,13.457,3.841c.268.076.542.135.912.227-.133-.28-.216-.461-.3-.641a5.093,5.093,0,0,1,4.205-7.315c2.569-.133,5.149-.038,7.724-.071a3.61,3.61,0,0,0,1.211-.244,18.514,18.514,0,0,1,4.893-1.32.633.633,0,0,0,.613-.536,18.918,18.918,0,0,0-11.02-23.011,18.788,18.788,0,0,0-21.06,4.922c-.636.686-1.362.777-1.878.235a1.129,1.129,0,0,1,.063-1.641,20.593,20.593,0,0,1,9.572-6.2,21.078,21.078,0,0,1,26.035,12.659,20.671,20.671,0,0,1,.678,12.969l-.143.553a21.937,21.937,0,0,1,2.571.73c1.387.574,2.744,1.229,4.077,1.922a3.376,3.376,0,0,0,1.671.434c1.984-.027,3.968-.012,5.952-.009,1.069,0,1.479.415,1.479,1.5,0,5.836-.006,11.672.011,17.509a1.646,1.646,0,0,1-.787,1.58Zm-.808-6.369v-.669c0-3.319-.089-6.642.042-9.955a2.414,2.414,0,0,0-1.621-2.671,13.691,13.691,0,0,0-6.5-1.728,16.076,16.076,0,0,0-5.12,1.333,4.068,4.068,0,0,1-1.432.3c-2.537.03-5.075-.012-7.612.027a2.856,2.856,0,0,0-2.924,2.881,2.873,2.873,0,0,0,3.019,2.785c2.518.007,5.037,0,7.555,0a4.773,4.773,0,0,1,.515.009,1.125,1.125,0,0,1,1.054,1.2,1.113,1.113,0,0,1-1.111,1.081c-.095.007-.191.006-.286.006q-6.182,0-12.363-.006a3.358,3.358,0,0,1-.9-.131c-2.876-.818-5.747-1.651-8.622-2.472-1.721-.491-3.431-1.034-5.174-1.434a2.543,2.543,0,0,0-2.972,2.947,2.617,2.617,0,0,0,1.869,2.109c5.094,1.758,10.2,3.48,15.273,5.3a19.517,19.517,0,0,0,8.854,1.308c3.162-.358,6.307-.866,9.465-1.266,2.889-.366,5.748-1.031,8.689-.9A2.05,2.05,0,0,0-542.816,313.743Zm2.331-11.9v15.943h5.055V301.814c-1.519,0-3,0-4.484,0C-540.1,301.816-540.284,301.831-540.485,301.841Z" transform="translate(0 -43.239)"/><path class="a" d="M-542.62,346.988c0-1.068-.013-2.136,0-3.2a4.227,4.227,0,0,1,4.221-4.228,13.419,13.419,0,0,1,2.393.1,3.971,3.971,0,0,1,3.345,3.7c.1,2.436.1,4.882,0,7.318a4.036,4.036,0,0,1-3.792,3.769,15.406,15.406,0,0,1-2.285,0,4.187,4.187,0,0,1-3.875-4.085c-.029-1.124-.005-2.25-.005-3.375Zm2.289.059c0,1.048-.011,2.1,0,3.143a1.917,1.917,0,0,0,1.863,1.992c.474.037.952.028,1.428.018a1.98,1.98,0,0,0,2.15-2.186c.01-1.257,0-2.514,0-3.771,0-.838.028-1.678-.017-2.514a1.915,1.915,0,0,0-1.967-1.889c-.438-.01-.876,0-1.315,0a1.968,1.968,0,0,0-2.146,2.123C-540.336,344.991-540.332,346.019-540.331,347.048Z" transform="translate(-40.365 -102.734)"/><path class="a" d="M-453.178,358.257c-.376-.285-.8-.455-.944-.757a2.159,2.159,0,0,1,0-1.122c.019-.142.2-.271.319-.391q5.839-5.842,11.686-11.677a1.625,1.625,0,0,1,.6-.419,1.068,1.068,0,0,1,1.272.39,1.066,1.066,0,0,1,.015,1.328,3.2,3.2,0,0,1-.383.423q-5.739,5.74-11.487,11.472A8.091,8.091,0,0,1-453.178,358.257Z" transform="translate(-115.275 -106.352)"/><path class="a" d="M-455.278,347.565a3.283,3.283,0,0,1-3.278-3.268,3.3,3.3,0,0,1,3.331-3.279,3.3,3.3,0,0,1,3.249,3.3A3.28,3.28,0,0,1-455.278,347.565Zm.031-4.255a1,1,0,0,0-1.013.951.992.992,0,0,0,.947,1.012.992.992,0,0,0,1.043-.974A1,1,0,0,0-455.247,343.31Z" transform="translate(-111.585 -103.977)"/><path class="a" d="M-394.6,401.578a3.285,3.285,0,0,1-3.261,3.286,3.288,3.288,0,0,1-3.285-3.319,3.273,3.273,0,0,1,3.29-3.25A3.27,3.27,0,0,1-394.6,401.578Zm-3.284-.989a.977.977,0,0,0-.971.983,1,1,0,0,0,.963,1,1,1,0,0,0,1-1.021A.975.975,0,0,0-397.879,400.589Z" transform="translate(-160.223 -152.499)"/><path class="a" d="M-558.765,248.738a5.121,5.121,0,0,1-.965-.657c-.72-.814-1.4-1.661-2.083-2.508a1.147,1.147,0,0,1,.057-1.683,1.155,1.155,0,0,1,1.707.236q1.068,1.27,2.112,2.56a1.011,1.011,0,0,1,.136,1.27A4.729,4.729,0,0,1-558.765,248.738Z" transform="translate(-23.826 -21.46)"/><path class="a" d="M-364.122,248.658a4.955,4.955,0,0,1-.916-.71.912.912,0,0,1,.025-1.174c.77-.971,1.552-1.934,2.368-2.866a1.074,1.074,0,0,1,1.5-.1,1.106,1.106,0,0,1,.227,1.537c-.749.963-1.531,1.9-2.334,2.82A3.448,3.448,0,0,1-364.122,248.658Z" transform="translate(-190.636 -21.406)"/><path class="a" d="M-459.509,220.99c0-.5-.009-.991,0-1.487a1.153,1.153,0,0,1,1.155-1.224,1.142,1.142,0,0,1,1.127,1.194q.024,1.515,0,3.031a1.116,1.116,0,0,1-1.125,1.186,1.127,1.127,0,0,1-1.157-1.213C-459.519,221.981-459.509,221.485-459.509,220.99Z" transform="translate(-110.774)"/><path class="a" d="M-574.378,343.053a1.116,1.116,0,0,1-1.118,1.126,1.126,1.126,0,0,1-1.137-1.112,1.145,1.145,0,0,1,1.152-1.163A1.13,1.13,0,0,1-574.378,343.053Z" transform="translate(-11.558 -104.727)"/></g></svg>