<svg xmlns="http://www.w3.org/2000/svg" width="875.525" height="547.087" viewBox="0 0 875.525 547.087"><defs><style>.a{fill:#fff;}</style></defs><path class="a" d="M-1019.269,629.921a1.945,1.945,0,0,1,1.922-1.943c35.96-.44,71.92-1.105,107.887-1.249,116.6-.467,173.193-.824,289.791-1.072,7.1-.021,14.191.226,21.285.163a55.212,55.212,0,0,0,11.529-.868c2.194-.493,4.028-2.593,6.024-3.971-1.807-1.267-3.487-3.371-5.441-3.667-13.829-2.1-27.672-4.8-41.6-5.439-19.954-.922-39.994.173-59.971-.443a172.594,172.594,0,0,1-31.537-3.96c-12.758-2.8-20.882-11.358-21.554-24.652-.589-11.666.426-23.427,1.038-35.129.158-3.02.688-5.475,5.464-2.87,2.513,1.37,7.877-.63,10.982-2.622,4.963-3.184,7.178-8.754,9.521-15.754-11.21,8.352-21.824,6.592-32.658,2.662-7.868-2.854-15.816-5.551-23.879-7.774A34.219,34.219,0,0,0-783.147,520c-16.328,1.893-32.6,4.25-47.726,11.369-9.756,4.589-18.618,3.076-26.91-3.93-7.4-6.253-15.4-11.6-24.987-14.278-4.906-1.368-7-5.6-7.467-10.344-.462-4.7,2.991-7.043,6.718-8.372,8.173-2.914,16.489-5.426,25.292-8.277-1.343-.818-2.459-1.5-3.581-2.178C-870.079,479-878.335,474-886.64,469.074a6.911,6.911,0,0,0-3.332-1.02c-5.023,0-10.353,1.341-15.016.1-22.285-5.911-45.142-7.289-67.9-9.481-12.675-1.22-25.4-1.948-38.084-3.04-1.173-.1-2.256-1.242-3.38-1.9,1.037-.673,2.015-1.809,3.119-1.949,19.32-2.441,38.635-4.936,57.994-7.027,9.264-1,18.652-1.92,27.917-1.484,6.157.291,12.2,3.047,18.288,4.7l.045,1.546c.4-1.129.834-2.245,1.179-3.388,3.645-12.105,10.93-21.83,20.065-30.259,17.571-16.215,38.546-26.686,60.392-35.755,5.689-2.361,11.333-3.646,17.37-2.716,1.882.291,3.646,1.346,5.463,2.05-1.137,1.414-2.033,3.151-3.444,4.192-14.014,10.326-28.425,20.142-42.093,30.9-11.5,9.053-22.348,18.971-33.091,28.931-3.452,3.2-5.929,7.594-8.285,11.763-.936,1.657-.336,4.184-.434,6.317l1.54.5c3.063-2.531,6.259-4.921,9.166-7.619,13.826-12.836,27.4-25.95,41.41-38.58,9.566-8.622,19.668-16.654,29.6-24.871,8.053-6.664,16.307-7.054,25.3-1.37,12.659,8,25.448,15.848,38.542,23.11,11.243,6.237,22.982,11.583,34.53,17.265a54.718,54.718,0,0,0,5.455,1.966c-2.544-20.817,4.572-39.671,8.93-59,1.869-8.291,2.943-16.784,3.983-25.235,1.272-10.341,6.43-17.37,16.431-20.525,5.371-1.694,10.845-3.066,16.273-4.578,12.87-3.585,22.269-11.556,26.351-24.12,3.4-10.472,4.9-21.564,7.15-32.4a4.879,4.879,0,0,0-.426-3.274c-6.131-9.812-6.133-21.213-8.423-32.01-4.569-21.55-12.127-41.8-26.294-59.014-17.629-21.424-40.327-33.045-68.153-34.535a60.437,60.437,0,0,0-38.041,10.364c-26.716,18.124-41.864,43.563-46.386,75.42a45.478,45.478,0,0,0-.2,5.8c-.01.927.1,1.857.161,2.778,1.8-.757,3.42-1.436,5.038-2.114a32.6,32.6,0,0,1,1.55,5.364A48.941,48.941,0,0,1-805.817,245c-.557,6.121,2.478,9.631,8.157,12.333.93-4.245,1.8-8.365,2.739-12.468.975-4.236,1.931-8.483,3.1-12.666.3-1.063,1.341-2.608,2.128-2.662a3.754,3.754,0,0,1,2.786,2.053c1.737,4.148,3.106,8.449,4.74,12.643,1.139,2.923,2.491,5.763,3.748,8.64l1.528.15c1.44-2.928,3.082-5.777,4.275-8.8,1.71-4.337,2.748-8.96,4.687-13.18,4.83-10.514,12.73-13.374,22.909-7.816,5.892,3.216,11.138,7.624,16.626,11.564,4.053,2.91,7.947,6.048,12.063,8.862,3.253,2.225,6.035,1.062,7.445-2.317a94.23,94.23,0,0,0,3.048-10.141c.9-3.088,1.541-6.273,2.715-9.248,2.836-7.185,8.4-10.625,16-11.311,7.329-.661,12.945,2.054,16.9,8.106,5.568,8.512,6.864,18.283,7.9,28.1.151,1.436.176,2.885.336,5.658,1.405-2.834,2.256-4.62,3.167-6.372,3.287-6.323,8.311-7.661,13.752-3.066a28.557,28.557,0,0,1,6.767,8.647c5.306,10.366,7.279,21.628,7.625,33.167a15.568,15.568,0,0,1-1.4,6.548c-5.073,11.4-12.976,20.354-24.036,26.224-7.359,3.9-9.491,3.248-14.571-3.149a38.821,38.821,0,0,0-3.169-3.647c-5.72-5.6-13.113-5.251-18.046,1.011-2.387,3.029-4.373,6.374-6.525,9.587-6.37,9.513-21.919,14.508-32.713,3.433-1.461-1.5-3.1-2.818-4.615-4.27-7.32-7.039-15.79-11.067-26.192-10.009-3.084.313-4.357-.673-4.1-4.075,1.715-22.7-2.32-29.64-22.693-39.631-1.713-.839-3.452-1.627-5.566-2.622a31.123,31.123,0,0,1-.892,4.854c-.589,1.663-1.5,4.474-2.38,4.518-2,.1-5.064-.607-5.911-2.039-2.154-3.645-3.455-7.824-4.861-11.87-1.319-3.8-2.338-7.7-3.487-11.555l-1.865.217c-1.041,6.551-1.986,13.118-3.189,19.639-.318,1.723-1.43,3.3-2.176,4.944-1.738-1.009-4.333-1.605-5.051-3.1-2.05-4.281-4.312-8.831-4.768-13.446-3.265-33.048,1.391-64.436,21.851-91.8,18.161-24.291,41.776-40.61,72.034-45.771,22.348-3.812,42.949,1.91,61.538,14.471,26.791,18.1,41.593,44.229,49.039,75.064,4.013,16.613,4.4,33.489,3.951,50.463a23.072,23.072,0,0,0,1.891,8.713c2.11,5.391,4.918,10.51,6.978,15.917,4.12,10.809,1.958,19.24-6.667,27.024-2.494,2.251-5.232,4.234-8.753,7.057,6.024-1.613,10.96-3.124,15.982-4.24,11.98-2.663,17.986-.112,24.156,10.59,2.782,4.825,4.879,10.045,7.789,16.14,4.259-34,25.652-60.2,36.5-92.043-1.736,1.306-2.467,1.754-3.076,2.331-6.074,5.765-9.2,5.976-14.845-.409-13.748-15.567-20.732-33.391-16.048-54.341,2.42-10.831,5.749-21.456,8.543-32.206.7-2.689.927-5.5,1.408-8.48-5.82-.616-8.663,2.717-9.967,6.346-3.137,8.734-6.327,17.614-7.913,26.71-3.791,21.741-3.15,43.659-.672,65.544.151,1.337-.694,2.787-1.075,4.185-1.027-.984-2.4-1.787-3.025-2.982-5.144-9.8-9.338-20.2-15.378-29.4-10.206-15.542-15.184-32.692-17.645-50.666-1.74-12.712-3.478-25.669-2.876-38.406,1.107-23.431,24.251-39.04,46.565-32.695,8.481,2.413,14.628,7.914,19.63,14.9,1.661,2.321,3.213,4.719,5.417,7.969,1.734-2.685,3.323-4.621,4.334-6.823,1.746-3.8,3.04-7.8,4.686-11.649,6.044-14.138,17.085-21.429,32.128-22.771,28.283-2.522,52.54,7.065,73.918,25.035,1.109.932,2.183,1.91,3.3,2.828a2.84,2.84,0,0,0,.94.3,8.741,8.741,0,0,0,.761-1.206c8.567-19.956,28.6-23.884,45.889-12.765,17.925,11.529,25.126,28.726,23.933,49.642-.747,13.082-5.049,25.223-10.708,36.9-4.99,10.291-10.858,20.207-15.146,30.772-4.21,10.372-6.886,21.363-10.329,32.053a19.57,19.57,0,0,1-2.171,3.716c-.869-1.223-2.22-2.332-2.534-3.685-2.756-11.852-1.326-23.725.168-35.573,1.594-12.627,3.98-25.205,4.655-37.876a96.764,96.764,0,0,0-2.555-25.718c-1.524-6.893-6.678-11.74-14.529-14.535,3.413,5.772,6.448,10.629,9.214,15.635,4.909,8.892,5.879,17.659-1.262,26.05a4.632,4.632,0,0,0-.843,3.071c1.344,17.845-2.788,34.956-7.318,51.926a323.413,323.413,0,0,1-10.453,32.1,56.731,56.731,0,0,1-8.706,14.4c-9.378,11.886-22.321,12.956-36.011,10.726-11.522-1.877-21.776-6.934-31.2-13.6-9.708-6.873-19.16-14.111-29.191-21.536-2.467,4.593-5.135,8.8-7.068,13.332-2.884,6.755.593,12.83,7.545,13.368,21.341,1.656,39.289,10.505,54.588,25.193a123.2,123.2,0,0,0,9.667,8.763c4.727,3.66,9.61,3.151,12.222-2.154,2.639-5.357,3.67-11.5,5.48-17.277.522-1.669,1.3-3.258,1.954-4.884,1.157,1.37,2.7,2.565,3.407,4.138,4.374,9.8,7.147,20.017,7,30.861-.123,9.035-4.549,14.453-13.425,16.313-16.065,3.367-29.4-.382-38.592-14.909-2.066-3.265-4.306-6.429-6.606-9.538-8.324-11.248-17.313-14.453-30.871-10.636-17.967,5.059-27.7,17.924-30.911,35.479-3.782,20.662.377,41.009,4.2,62.273,1.076-1.387,1.68-1.865,1.884-2.476,3.341-9.969,10.917-13.809,20.744-14.406a36.98,36.98,0,0,1,6.76-.222c8.936,1.122,15.142-3.137,20.206-9.835,3.6-4.755,7-9.671,10.806-14.253,4.231-5.092,6.579-5.17,12.024-.852,21.152-10.5,42.249-21.585,63.875-31.526,24.118-11.088,48.756-21.039,73.076-31.69,6.167-2.7,11.934-2.026,16.916,1.692,7.843,5.853,15.939,11.706,22.477,18.879,7.646,8.386,14.009,18.006,20.357,27.473,2.339,3.487,3,8.085,4.522,12.138,1.165,3.1,2.487,6.138,3.863,9.507,17.171-14.1,36.907-18.538,56.536-22.915,9.548-2.128,19.392-3.023,29.147-4.039,1.915-.2,4.041,1.618,6.07,2.506-1.4,1.786-2.46,4.615-4.245,5.185-10.1,3.228-20.366,5.914-30.576,8.78a3.324,3.324,0,0,0-1.91,1.071c.931.09,1.868.155,2.8.275,11.159,1.445,22.333,2.8,33.46,4.463,1.542.23,2.856,1.99,4.276,3.042-1.685.878-3.328,2.418-5.063,2.531-13.191.861-26.429,1.108-39.591,2.243a132.437,132.437,0,0,0-23.248,4.177c-4.147,1.127-7.7,4.355-11.611,6.46-6.6,3.552-13.566,6.667-21.028,3.46a94.993,94.993,0,0,1-17.282-9.586c-15.388-10.889-30.429-22.267-45.736-33.274-1.523-1.1-4.2-1.82-5.882-1.279-47.978,15.475-95.723,31.608-141.848,52.13-2.193.975-4.338,2.056-6.753,3.207,12.6,12.41,23.83,25.812,42.546,28.894,34.782,5.728,63.564-4.541,86.742-30.983a30.571,30.571,0,0,1,6.755-6.07c3.951-2.407,7.108-1.05,7.811,3.514a64.7,64.7,0,0,1,.212,12.5c-.3,6.924.806,8.716,7.783,8.244,6.841-.465,13.611-2.085,20.392-3.317,8.046-1.461,16.026-3.384,24.125-4.372,2.391-.291,6.48,1.3,7.279,3.122.958,2.185-.054,6.009-1.514,8.294a37.792,37.792,0,0,1-8.241,8.737c-16.161,13-34.136,21.591-55.216,23.256-24.656,1.948-48.045,8.962-70.609,18.953-6.47,2.865-13.046,5.56-19.739,7.845-17.531,5.984-33.98,3.278-49.314-6.875-11.608-7.686-20.74-17.859-28.679-29.13-4.811-6.829-9.212-13.947-14.28-21.67a19.579,19.579,0,0,0,.519,2.738c6.574,17,15.631,32.478,28.1,45.877,13.894,14.925,30.331,20.37,50.337,14.426a205.32,205.32,0,0,1,27.266-6.17c10.98-1.685,16.441,3.625,13.277,14.178-4.653,15.512-10.947,30.545-16.9,45.643-1.175,2.982-3.955,5.331-6.253,8.31,14.092,8.95,20.775,23.245,26.945,37.9,2.125,5.046,4.225,10.1,6.385,15.135,5.377,12.521,14.819,20.376,27.771,24.282,17.647,5.32,35.85,6.468,54.065,6.557,63.54.313,97.082.265,160.623.358,8.386.013,16.774-.041,25.155.165a2.366,2.366,0,0,1,.4.045,1.963,1.963,0,0,1-.037,3.815,2.315,2.315,0,0,1-.406.037c-70.632-.045-111.265-.167-181.9-.364-18.558-.059-37.039-1.115-55.186-5.627-17.016-4.232-28.963-14.027-35.509-30.469-3.571-8.971-7.511-17.811-11.67-26.526s-10.027-16.164-18.257-21.465c-1.2-.775-3.1-1.49-4.3-1.089-10.513,3.532-21.341,2.892-32.121,2.684-11.122-.216-22.241-.678-33.36-1.073-1.93-.068-4.05.111-5.734-.624-2.584-1.128-4.866-2.947-7.278-4.473,1.6-2.227,2.72-5.335,4.886-6.487a36.99,36.99,0,0,1,13.092-4.5c20.469-2.115,40.544-.5,59.721,7.852a5.4,5.4,0,0,0,4.916-.927c2.637-2.972,5.4-6.181,6.839-9.8,4.915-12.415,9.3-25.041,13.836-37.6a16.358,16.358,0,0,0,.741-3.781c.718-6.659-1.1-9.048-7.657-8.219-7.632.964-15.143,2.9-22.693,4.469-5.826,1.213-11.6,2.739-17.456,3.735a37.482,37.482,0,0,1-27.749-5.858c-23.3-15.587-36.809-38.22-44.828-64.47-.759-2.486.537-5.6.88-8.422,2.087,1.936,4.6,3.578,6.19,5.86,7.456,10.695,14.014,22.086,22.17,32.2a106.45,106.45,0,0,0,20.88,19.2c14,10.034,29.734,11.981,46,6.047,11.183-4.082,22.078-8.95,33.169-13.3,20.1-7.883,41.071-11.792,62.482-14.155,21.315-2.353,39.033-12.486,54.032-27.532,1.5-1.51,2.37-3.656,4.341-6.8-5.333,0-9.491-.661-13.349.136-8.5,1.753-16.793,4.513-25.286,6.315a56.484,56.484,0,0,1-13.446.877c-7.232-.235-9.991-3.5-9.77-10.869.088-2.9.518-5.789.524-8.683a55.874,55.874,0,0,0-.957-6.876c-2.925,2.79-5.116,4.575-6.946,6.673-14.872,17.056-32.84,28.888-55.434,32.829a96.242,96.242,0,0,1-41.239-1.76A52.787,52.787,0,0,1-486,415.441c-5.88-5.5-11.745-11.027-17.726-16.422-2.911-2.626-1.041-3.815,1.242-4.844,8.954-4.036,17.744-8.542,26.95-11.895,41.6-15.153,83.322-29.95,124.97-44.959,2.946-1.062,4.99-.479,7.468,1.354q24.867,18.4,50,36.441a69.523,69.523,0,0,0,8.78,5.073c8.3,4.294,15.822,3.191,23.074-2.682,7.452-6.036,16.672-7.568,25.777-8.675,11.971-1.454,24.025-2.221,37.374-3.4a108.841,108.841,0,0,0-36.936-.93c-8,1.068-15.737,4.039-23.609,6.091a9.448,9.448,0,0,1-2.639-.071c.068-1.187-.327-2.99.287-3.451,2.274-1.707,4.718-3.59,7.391-4.3,13.844-3.681,27.788-6.974,41.674-10.5,6.756-1.713,13.459-3.628,20.186-5.45l-.455-2.017c-10.043,1.807-20.247,3-30.088,5.575a318.184,318.184,0,0,0-36.24,11.67c-5.424,2.141-9.751,7-14.724,10.4-.931.638-3.478.735-3.752.239-3.326-6.017-9.815-7.208-14.971-10.494-11.13-7.094-21.87-14.811-32.638-22.459-5.778-4.106-11.431-8.421-16.844-12.994-2.624-2.218-4.726-2.161-7.741-.975Q-419.55,353.432-490.02,380.8c-2,.778-4.4.517-6.615.74,1.468-1.842,2.552-4.429,4.462-5.414,30.619-15.8,61.175-31.747,92.119-46.892,14.719-7.2,30.237-12.776,45.375-19.131,6.04-2.537,11.476-1.59,16.9,1.982,17.612,11.6,32.95,25.846,47.906,40.56,1.033,1.018,2.047,2.057,3.111,3.043.168.156.55.081,1.467.183a66.076,66.076,0,0,0-2.8-6.762A130.331,130.331,0,0,0-325.838,306.3c-6.259-4.578-12.313-5.7-20.2-2.809-33.675,12.333-65.579,28.436-97.6,44.345-11.682,5.8-23.471,11.391-35.141,17.22-3.393,1.694-6.387,3.19-8-3.242-2.494,2.7-4.376,4.534-6.013,6.562-4.248,5.26-8.177,10.794-12.635,15.865a19.013,19.013,0,0,1-15.9,6.737c-3.523-.18-7.078.3-10.621.425-8.844.313-14.374,4.857-17.005,13.184a28.461,28.461,0,0,1-1.426,3.592c-1.6,3.385-3.351,3.5-5.419.231a14.517,14.517,0,0,1-1.91-4.4c-4.618-20.206-7.678-40.626-4.741-61.329,3.15-22.215,18.316-37.788,39.023-41.2,11.467-1.892,21.089,1.342,28.289,10.654,3.546,4.586,6.678,9.49,10.156,14.132,8.7,11.607,21.455,15.353,35.227,10.624,5.065-1.74,8.117-5.317,7.8-10.407-.5-8.224-1.941-16.392-2.983-24.583l-1.635.1c-1.441,3.593-2.557,7.36-4.386,10.743-4.923,9.1-12.867,10.565-20.778,3.866-4.547-3.853-8.72-8.144-13.207-12.073a80.23,80.23,0,0,0-47.242-19.983c-9.939-.842-15.144-9.418-11.226-18.816,1.666-3.995,4.139-7.647,5.955-11.589a4.273,4.273,0,0,0-.759-3.969c-9.7,20.478-20.06,40.677-28.824,61.548-4.427,10.543-6.832,22.171-8.478,33.552-.948,6.551,1.138,13.64,2.382,20.389,7.443,40.4,10.486,81.176,10.707,122.183a95.085,95.085,0,0,0,4.084,28.489c7.508,23.84,12.078,48.148,9.347,73.322a71.366,71.366,0,0,1-2.135,11.844c-.446,1.56-2.326,3.625-3.7,3.747-1.341.119-3.685-1.68-4.174-3.119-1.542-4.529-3.171-9.243-3.43-13.959-1.434-26.074-2.4-52.174-3.713-78.256a45.483,45.483,0,0,0-2.145-12.743c-10.872-30.782-12.47-62.74-12.477-94.916,0-16.123,1.024-32.3-.037-48.349a54.207,54.207,0,0,0-14.444-34.028,11.938,11.938,0,0,0-8.554-3.332c-16.246,1.421-31,7.659-44.21,16.805-6.722,4.655-9.881,12.726-11.139,20.885-2.477,16.073-4.67,32.192-6.768,48.319-1.338,10.291-2.854,20.428-9.1,29.2-.589.825-.207,3.187.585,4,2.795,2.868,5.626,5.972,9.055,7.9,10.75,6.051,21.779,11.607,33.482,17.766,2.68-9.4,5.276-17.822,7.473-26.346,4.421-17.149,10.863-33.387,21.142-47.912,1.126-1.594,3.953-3.822,4.819-3.393,2.025,1.006,4.648,3.407,4.706,5.312.211,7.019.673,14.391-1.129,21.044-5.466,20.179-11.949,40.081-18.026,60.094-1.261,4.152-3.277,5-6.96,2.2-2.9-2.211-6.268-3.818-9.7-5.852-.837,1.88-1.587,3.275-2.1,4.754-4.648,13.548-14.283,22.273-26.977,28.106-15.418,7.084-31.858,10.318-48.509,12.382-18.551,2.3-37.18,3.958-55.775,5.9-.563.059-1.12.168-1.679.253l-.261,1.3c11.037,3.137,21.936,7,33.165,9.145,6.84,1.306,13.022-2.717,18.206-7.479a41.946,41.946,0,0,1,4.984-3.253c-.3,9.31-3.366,16.221-7.586,22.741-4.683,7.234-11.74,9.629-20.424,9.193-1.461,13.075-2.374,25.7.659,38.24A19.4,19.4,0,0,0-720.8,602.74c10.145,2.314,20.557,4.274,30.919,4.648,19.808.717,39.684-.393,59.486.411,14.11.572,28.15,2.979,42.2,4.71a14.836,14.836,0,0,1,6.376,2.081c2.06,1.4,5.059,3.762,4.923,5.492-.2,2.564-2.294,6.279-4.491,7.114a42.312,42.312,0,0,1-14.553,2.559c-42.089.249-84.182.137-126.272.331-118.368.544-176.736,1.139-295.1,1.783a1.947,1.947,0,0,1-1.957-1.948Zm427.826-392.855c.577-13.438.811-27.924,1.942-42.338.921-11.729,2.855-23.482,8.622-33.955a24.731,24.731,0,0,1,9.166-9.385c5.463-3,9.729.487,8.843,6.7-.611,4.283-1.955,8.461-2.969,12.685-2.592,10.787-6.03,21.453-7.581,32.388-2.52,17.752,5.3,32.25,16.83,45.07,2.569,2.857,5,2.877,7.591-.2,1.427-1.693,3.16-3.616,5.136-4.252,3.429-1.1,4.24-3.357,4.573-6.4-3.987-2.033-8.459-3.311-11.478-6.142a21.908,21.908,0,0,1-5.874-10.585,32.114,32.114,0,0,1,.165-12.87c2.577-13.5,5.836-16.588,18.085-18.272-1.138-3.026-2.365-5.963-3.358-8.977-6.051-18.374-5.987-36.339,7.229-51.573,17.554-20.235,40.385-27.818,66.608-22.716,18.838,3.665,32.255,16,41.858,31.942,6.312,10.477,10.858,22.016,15.968,32.613,2.876-3.386,3.868-7.885.666-14.071-4.128-7.976-9.251-15.434-13.853-23.17a12.909,12.909,0,0,1-.9-3.465c1.153-.211,2.385-.8,3.446-.572,10.873,2.305,19,8.272,22.455,19.017,1.8,5.591,3.165,11.724,2.849,17.51-.758,13.8-2.6,27.553-4.063,41.318-.974,9.171-2.043,18.332-3.07,27.5,5.327-10.4,9.892-20.8,14.708-31.069,3.349-7.143,7.172-14.063,10.552-21.192,5.355-11.292,9.369-23.025,9.69-35.659.5-19.781-6.866-35.674-24.524-45.515-16.3-9.082-31.593-3.153-38.38,14.147-.6,1.53-1.507,2.941-2.527,4.9-1.984-1.758-3.426-3-4.83-4.285C-455.443,100.125-475.7,90.114-499.8,88.9c-25.075-1.259-35.489,5.623-44.4,28.974a34.019,34.019,0,0,1-4.665,8.915c-3.371,4.284-7.01,3.822-9.927-.71-1.134-1.762-2.225-3.553-3.441-5.256-8.033-11.257-18.511-16.641-32.556-13.616-14.6,3.142-23.87,11.538-26.194,26.621a58.541,58.541,0,0,0-.706,12.516c2.108,33.263,8.226,65.249,30.25,90.72Zm-29.288,34.683c-2.349,9.157-3.989,17.386-6.591,25.3-5.222,15.889-16.112,26.026-32.467,30.119-4.215,1.055-8.441,2.109-12.583,3.417-10.286,3.247-14.167,8.613-15.241,19.3a205.813,205.813,0,0,1-3.523,22.368c-2.556,11.962-6.212,23.72-8.189,35.763-1.25,7.615-.386,15.594-.267,23.407.028,1.878.868,3.743,1.335,5.614a46.01,46.01,0,0,1-5.986-.775,31.518,31.518,0,0,1-6.8-2.459c-17.641-9.294-35.285-18.583-52.809-28.1-8.486-4.607-16.711-9.7-25.06-14.554-4.339-2.526-8.675-2.381-12.684.55-7.013,5.129-14.311,9.973-20.752,15.759-20.866,18.739-41.4,37.849-62.042,56.832-.186.173-.178.557-.585,1.953,10.172,5.628,20.491,11.515,31.043,16.951,1.312.675,4.221-.62,5.674-1.849.664-.562.182-3.819-.814-4.744a85.636,85.636,0,0,0-9.269-6.876c-4.226-2.973-5.767-7.607-3.5-10.708,2.941-4.018,9.729-5.634,13.995-3.132,6.223,3.649,12.312,7.519,18.524,11.183,15.855,9.349,33.078,12.179,51.176,10.342a35.245,35.245,0,0,0,10.8-2.449q38.718-17.422,77.205-35.351c2.978-1.386,6.149-3.632,7.691-6.352.923-1.629-1.259-4.927-1.848-7.52-2.442-10.775-.691-21.189,3.3-31.242,3.393-8.541,5.411-17.217,4.212-26.415a26.266,26.266,0,0,1,6.671-21.478,92.516,92.516,0,0,1,12.933-12.258c10.076-7.746,20.563-14.957,30.751-22.561a57.622,57.622,0,0,0,8.9-8.1,15.46,15.46,0,0,0,3.248-15.4c-1.69-5.319-4.037-10.438-6.443-16.529Zm-141,34.252c17.833,2.278,18.866,2.761,32.255,14.918.358.326.713.652,1.076.971,9,7.892,19.468,6.813,26.666-2.846,2.113-2.836,3.837-5.963,5.946-8.8,6.921-9.317,17.677-9.88,25.627-1.39,1.319,1.408,2.225,3.328,3.757,4.372,1.6,1.09,3.978,2.347,5.587,1.919,13.857-3.674,27.141-22.72,25.657-36.895-1.112-10.624-3.217-21.117-10-29.83-4.358-5.592-8-4.95-10.964,1.334a49.057,49.057,0,0,1-4.461,7.926,4.272,4.272,0,0,1-3.772,1.289c-.83-.251-1.427-2.2-1.608-3.468-.294-2.059.151-4.244-.269-6.261-1.755-8.459-3.137-17.063-5.794-25.246-1.936-5.962-6.651-9.72-13.69-9.389-8,.377-12.477,3.767-14.874,11.981-1.484,5.089-2.282,10.416-4.159,15.343-2.711,7.119-7.861,8.847-14.235,4.782-5.139-3.278-9.7-7.44-14.686-10.978-4.841-3.437-9.642-7.074-14.914-9.72-6.52-3.271-11.418-1.334-14.912,5.131a67.987,67.987,0,0,0-3.393,8.5c-1.41,3.762-2.265,7.842-4.293,11.225-1.483,2.471-4.381,5.4-6.819,5.569-1.891.127-4.639-3.4-5.946-5.865-2-3.779-3.094-8.041-4.573-12.1a36.451,36.451,0,0,0-2.894,8.944c-2.662,12.087-2.654,12.087,8.233,17.727,1.286.666,2.552,1.37,3.824,2.064,13.388,7.294,18.7,18.891,17.964,33.708-.086,1.594-.215,3.188-.34,5.086Zm349.079-125.918c-9.937,4.891-17.639,2.181-25.31-1.14-5.016-2.172-9.95-4.673-15.158-6.237-9.6-2.885-11.7-1.1-11.28,8.6.252,5.746-1.568,10.47-6.6,13.593-4.781,2.964-9.168,1.32-13.658-1.044-2.416-1.273-5.222-1.811-7.851-2.681a61.121,61.121,0,0,0,.211,8.374c.912,5.809.3,6.951-5.542,7.387-17.314,1.291-29.192,10.431-34.527,26.449-1.654,4.971,1.738,11.625,2.858,17.5.045.235.483.4.741.592,9.434,7.018,18.629,14.4,28.394,20.921,6.1,4.075,12.745,7.855,19.686,10.053,28.759,9.106,41.03.052,50.684-22.5a61.6,61.6,0,0,0,3.2-8.589c3.846-14.788,7.934-29.53,11.132-44.46,1.762-8.253,1.951-16.845,3.016-26.817Zm-83.315,22.657c-.591-3.379-1.14-5.737-1.395-8.126-.664-6.243,3.552-9.446,9.434-7.089,2.374.952,4.516,2.463,6.823,3.6,6.088,3.009,11.882-.139,12.524-6.959a64.767,64.767,0,0,0-.154-8.688c-.185-4.5,2.046-7.581,6.388-7.347a70.667,70.667,0,0,1,16.4,2.907c5.36,1.611,10.244,4.83,15.62,6.34,3.836,1.078,8.164.838,12.223.535,2.712-.2,3.77-1.958,2.934-5.18-3.769-14.554-9.912-27.907-19.313-39.661-23.149-28.943-60.33-32.891-89.175-9.493-12.479,10.123-19.264,23.21-17.425,39.314.985,8.638,4.2,17.081,6.944,25.435,1.728,5.256,1.28,6.359-4.361,5.968-7.5-.522-9.407.606-12.037,7.5a46.631,46.631,0,0,0-2.192,7.4c-2.751,13.72,1.741,20.532,15.746,23.71C-529.867,214.366-516.567,203.726-495.967,202.74Zm-183.14,234.083c-3.84,2.666-7.138,5.7-11.009,7.52-24.032,11.289-47.745,23.454-72.439,33.082-24.016,9.363-47.861,5.311-70.066-7.712-5.668-3.324-11.257-6.786-16.917-10.122-3.364-1.984-6.558-.837-8.5,1.875-.531.741,1.785,4.045,3.35,5.622,1.78,1.8,4.3,2.831,6.291,4.447,6.412,5.194,6.731,8.671,1.479,14.9a9.18,9.18,0,0,0,1.592,1.063q33.644,13.408,67.324,26.723a10.31,10.31,0,0,0,4.72.48c25.626-2.817,51.295-5.329,76.846-8.729,15.523-2.066,30.65-6.145,44.168-14.661,9.93-6.256,15.475-15.48,18.484-26.666C-649.528,456.178-667.083,451.178-679.107,436.823ZM-822.28,266.778l1.936-.158c-.048-11.223,4.5-21.683,3.534-33.258-3.137-37.6,27.151-84,62.9-96.242a70.987,70.987,0,0,1,25.572-3.652c35.238,1.564,61.6,18.679,79.981,48.367,12.184,19.679,17.868,41.57,20.978,64.267a76.246,76.246,0,0,0,1.806,7.557,124.954,124.954,0,0,0-2.861-44.681c-7.412-30.513-22.251-56.222-49.25-73.581-16.967-10.909-35.663-16.055-55.747-12.718-31.461,5.227-55.447,22.485-73.234,48.479-17.429,25.474-21.1,54.181-18.373,84.13C-824.69,259.166-823.228,262.946-822.28,266.778ZM-980.328,452.464l.1,1.072a6.883,6.883,0,0,0,1.344.424c26.408,2.73,53,4.1,78.8,11.224,2.268.626,4.859.084,8.065.084-4.338-6.87-2.127-12.431,1.751-16.857,7.085-8.086,14.221-16.371,22.536-23.088,17.276-13.956,35.338-26.941,53.073-40.329,1.325-1,2.619-2.038,3.928-3.058-2.582-.708-4.985-1.084-6.957-.329-23.885,9.123-46.846,19.969-65.771,37.7-10.32,9.664-18.25,20.826-19.911,35.453-.111.973-1,1.856-1.533,2.781-.983-.637-2.317-1.05-2.889-1.949a16.6,16.6,0,0,0-11.825-7.614c-4.107-.683-8.374-1.448-12.458-1.042C-948.184,448.537-964.248,450.584-980.328,452.464Zm193.939,63.887a10.692,10.692,0,0,0-1.691-1.414q-31.041-12.641-62.106-25.219a5.382,5.382,0,0,0-3.154-.58c-9.536,2.881-19.079,5.756-28.485,9.025-1.764.613-4.367,3.339-4.079,4.422.666,2.5,2.446,5.989,4.522,6.62,10.3,3.131,18.874,9,26.94,15.687,6.731,5.583,13.845,6.516,21.548,2.948,14.509-6.718,29.966-9.528,46.505-11.488Zm494.815-158.285,1.2-1.642c-14.222-12.078-28.585-24-42.616-36.3-8.625-7.558-17.147-8.233-27.818-3.809-36.164,15-71.24,32.2-105.94,50.237a13.887,13.887,0,0,0-1.577,1.391c1.959-.629,3.014-.9,4.023-1.3,38.2-14.983,76.415-29.907,114.539-45.07,4.166-1.657,6.906-1.094,10.359,1.6,11.674,9.121,23.614,17.906,35.541,26.7C-299.9,352.8-295.678,355.347-291.574,358.066ZM-597.711,388.3c-18.479,21.7-22.125,48.793-30.487,74.359l11.489,6.667c2.846-8.188,6.052-15.778,8.108-23.668,4.165-15.975,7.834-32.084,11.386-48.209C-596.582,394.573-597.506,391.357-597.711,388.3Zm21.254-14.912c-3.82,32.617,1.985,98.713,9.9,112.648,1.166-22.893-5.186-100.728-9.9-112.647Zm-83.477-31.217c-10.147,7.956-13.658,15.484-12.732,26.919.69,8.512-1.065,16.482-3.621,24.583a136.762,136.762,0,0,0-4.9,23.9c-.459,3.611,1.182,7.487,2.093,12.467,5.463-7.2,7.223-14.009,8.208-21.04,3.083-22.06,3.728-44.5,10.953-66.828ZM-456.8,542.362c-1.645-.761-2.87-1.44-4.169-1.909-17.158-6.2-34.893-6.961-52.8-5.148a20.754,20.754,0,0,0-13.2,6.191c7.584,2.9,62.553,3.54,70.169.867Zm-98.733,57.594c5.818-26.446,2.533-52.235-5.836-77.613,1.251,25.9.494,51.951,5.836,77.613Zm-245.447-330.5c3.472-7.328,3.186-7.974-4.045-10.875,1.5,4.028,2.771,7.453,4.045,10.877Z" transform="translate(1019.269 -84.782)"/></svg>