<svg xmlns="http://www.w3.org/2000/svg" width="632.278" height="400" viewBox="0 0 632.278 400"><defs><style>.a{fill:#fff;}</style></defs><path class="a" d="M-1405.223,991.573a.014.014,0,0,1-.007.012.834.834,0,0,0,.089-.019A.627.627,0,0,1-1405.223,991.573Zm-.062.108c.019-.031.038-.066.054-.1l-.135.035Zm-431.779,174.339a1.547,1.547,0,0,0,1.544,1.547q63.34.057,126.749.052c6.655,0,6.81-.333,6.361-6.919-.619-9.019-.994-18.052-1.52-27.953,6.706,0,12.762-.155,18.8.1a7.305,7.305,0,0,1,4.582,2.266c10.048,11.072,23.359,14.982,37.343,18.037a277.882,277.882,0,0,1,31.12,8.83c11.939,4.119,22.651,1.166,33.217-4.069s18.215-13.8,24.167-23.571c12.866-21.146,25.142-42.653,37.644-64.027,1.423-2.435,2.742-4.933,4.112-7.4l1.1.371c-1.036,6.954-1.86,13.942-3.144,20.849-2.866,15.442-8.148,30.007-16.889,43.152-4.873,7.336-5.708,15.647-6.28,24.051-.267,3.915-.236,7.862-.553,11.776-.271,3.372,1.071,4.563,4.428,4.552q21.987-.068,43.967.182c7.862.1,15.72.506,23.575.824a6.331,6.331,0,0,1,1.818.667h24.445c2.618-.267,5.236-.742,7.855-.766,20.353-.193,40.707-.372,61.063-.417q82.511-.195,165.03-.3a1.747,1.747,0,0,0,1.744-1.746h0a1.752,1.752,0,0,0-1.644-1.75c-20.683-1.237-41.455-.957-62.185-1.492h0a19.2,19.2,0,0,1-6.787-1c-1.744-.731-3.016-2.588-4.5-3.945,1.25-1.206,2.3-3.012,3.786-3.5a69.649,69.649,0,0,1,10.291-2.189,113.22,113.22,0,0,0,47.989-19.744c4.811-3.426,7.63-8.133,6.13-14-1.516-5.925-4.061-11.586-6.157-17.368,1.365,5.19,2.673,10.392,4.111,15.563,1.818,6.516-.476,11.385-5.824,15.1a111.452,111.452,0,0,1-41.833,18.01c-4.9.994-9.8,2.027-14.707,2.993-3.132.615-6.045,1.13-9.224-.862-1.709-1.071-4.981-1-6.884-.077-2.367,1.152-3.844.417-5.944-.2-8.272-2.448-16.645-4.552-24.992-6.748-3.19-.833-6.308-1.7-7.677-5.607,4.192,1.281,7.99,1.411,10.74-2.416,3.558-4.95,5.476-10.658,2.131-15.968-6.15-9.758-11.7-20.249-22.613-27.118,4.107-.267,8.218-.77,12.321-.723,3.094.035,6.165.833,9.262,1.195,3.856.445,7.618.3,10.766-2.421a9.982,9.982,0,0,1,12.139-1.149c7.618,4.394,15.257,4.18,23.045,1.215,9.216-3.508,18.335-7.267,27.473-10.968a13.492,13.492,0,0,0,2.429-1.655c-.155-.3-.31-.591-.461-.885-3.488,1.469-6.976,2.943-11.265,4.753,2.2-3.93,4.088-7.109,5.774-10.392a18.218,18.218,0,0,0,1.926-5.3c.667-4.227-.75-6.033-5.415-7.123.8-2.967,1.651-5.915,2.4-8.883,1.175-4.665.626-5.411-3.983-6.876a3.993,3.993,0,0,1-2.166-2.416c-1.063-3.771-3.341-3.81-6.184-2.259-1.879,1.025-3.655,2.243-4.978,3.063-1.694-1.6-3.38-4.467-5.062-4.467-2.228,0-4.954,1.806-6.57,3.631-3.1,3.5-5.577,7.557-9.274,11.126.766-6.311,1.795-12.6,2.231-18.935.688-9.958,1.666-19.971,1.219-29.9-.353-7.831-5.237-14.054-11.173-19.151-2.166-1.853-4.656-3.38-6.547-5.468a16.977,16.977,0,0,1-4.142-6.741c-.41-1.64.716-4.289,2.046-5.534.94-.885,3.608-.727,5.1-.083,5.9,2.541,10.356,6.509,12.808,12.8,7.228,18.559,18.2,35,29.454,51.292,14.878,21.537,28.347,43.894,38.495,68.115a8.218,8.218,0,0,0,1.14,1.57c-.46-1.539-.815-3.129-1.411-4.625-9-22.655-21.262-43.523-35.131-63.479-11.912-17.152-23.7-34.345-31.349-53.982a18.087,18.087,0,0,0-4.149-6.428,72.145,72.145,0,0,0-36.321-18.494c-5.565-1.11-11.227-1.729-17.8-2.715,6.087-3.519,5.831-8.775,6.025-13.509.445-10.84.514-21.7.53-32.555.039-30.5,1.891-61.018-2.042-91.454-1.74-13.5-8.461-22.051-21.464-26.035-16.842-5.159-33.989-7.058-51.431-4.7-20.531,2.773-40.274,19.135-37.95,43.395a12.748,12.748,0,0,1-.7,4.332c-3,11.08-7.116,21.982-8.859,33.247-4.726,30.509-8.47,61.165-12.511,91.779-.313,2.4-1.01,3.906-3.412,4.832a84.825,84.825,0,0,0-10.681,4.915c-7.348,4.076-11.772,10.5-13.606,18.6-3.365-5.213-2.611-12.263-8.84-15.867a88.885,88.885,0,0,0,.417,14.6c1.384,11.931-.893,22.592-9.622,31.472a46.838,46.838,0,0,0-6.47,8.84c-4.4,7.356-3.883,13.168,1.5,19.827,2.22,2.738,4.451,5.484,6.876,8.036,2.866,3.021,3,6.006.94,9.552-13.705,23.676-27.273,47.437-41.013,71.093a58.614,58.614,0,0,1-19.434,20.481c-10.307,6.5-21.057,11-33.75,7.3-14.131-4.115-28.355-7.928-42.6-11.614-10.387-2.687-19.352-7.5-26.619-15.933,9.026-5.7,16.625-13.354,27.9-14.569,4.366-.468,8.628-2.249,12.843-3.708,11.026-3.805,19.468-10.488,23.73-21.75a30.517,30.517,0,0,1,3.035-5.727c4.27-6.559,10.256-8.864,17.9-7.031a29.556,29.556,0,0,0,5.116,1.25c6.172.329,12.36.692,18.521.449,1.5-.058,3.469-2.147,4.146-3.749.34-.808-1.458-3.04-2.769-3.9a26.493,26.493,0,0,0-6.342-2.626c-5.542-1.806-11.122-3.5-16.684-5.24,6.876-2.119,13.439-1.021,20.025.65a129.978,129.978,0,0,0,15.079,3.083c1.841.24,4.726-.556,5.611-1.891s.511-4.389-.511-5.855a16.387,16.387,0,0,0-6.269-5.279c-6.219-2.877-12.677-5.24-19.039-7.808a9.339,9.339,0,0,1,4.281-.073c6.149.97,12.271,2.166,18.455,2.807a5.619,5.619,0,0,0,4.59-2.343,6.353,6.353,0,0,0-.34-5.542,19.934,19.934,0,0,0-6.2-5,92.918,92.918,0,0,0-8.508-3.941c1.311-2.243,3.871-4.842,3.325-6.1-.9-2.093-3.744-3.4-5.882-4.881a7.291,7.291,0,0,0-2.711-.735c-4.757-.916-9.518-1.814-14.8-2.816,4.007-7.8,7.789-15.4,11.78-22.894,7.259-13.62,17.066-24.774,31.406-31.271,10.492-4.748,21.1-8.345,31.948-.777.278.2.777.083,1.926.174a34.9,34.9,0,0,0-1.632-5c-2.986-5.886-8.346-9.057-13.946-11.958-17.79-9.219-35.583-18.431-53.292-27.806a9.316,9.316,0,0,1-3.749-4.324,130.422,130.422,0,0,1-5-13.585c-1.319-4.316-3.021-8.767-3.032-13.162-.016-5.979,1.416-11.958,2.223-17.906,7.4-.228,8.779-1.206,10.806-8.489q2.773-9.965,5.082-20.056c1.578-6.884-.143-9.262-6.914-10.125.3-6.624.855-13.253.855-19.882,0-19.8-9.553-32.7-28.568-38.506-6.424-1.961-13.041-3.287-19.569-4.9h-14.668a8.2,8.2,0,0,1-1.7.785c-10.3,2.178-18.64,6.992-23.726,16.7-.859,1.644-3.066,2.916-4.931,3.627a17.731,17.731,0,0,0-10.465,10.109c-3.117,7.248-2.135,14.572-1.137,21.993,1.044,7.766,2.433,15.067-1.392,23.153-5.415,11.455,2.138,26.066,13.508,29.171.158,1.814.383,3.693.48,5.577.568,11.393,2.588,22.1,12.518,29.6,2.661,2.011,2.684,5.082,1.7,8.191-3.89,12.329-12.615,18.57-25.153,19.673-16.015,1.408-28,8.516-36.179,22.736-9.247,16.088-19.16,31.8-29.152,47.452-10.5,16.455-21.386,32.656-32.176,48.93-5.476,8.26-8.524,17.233-8.04,27.187.445,9.2.947,18.42,1.853,27.589.789,7.951,3.345,10.38,11.354,12,5.165,1.048,10.413,1.745,15.535,2.978,12.271,2.955,24.53,5.673,37.3,5.263,3.72-.116,7.472.685,11.185,1.06.583,8.725,1.184,17.1,1.679,25.481.341,5.774.212,5.84-5.77,5.844-41.162,0-83.138.011-124.323.034a1.544,1.544,0,0,0-1.542,1.547Zm265.607-141.158c2.847.626,5.487,2.185,9.13,3.69-6.74,4.006-13.5,1.636-18.884,4.49l.167,1.416c3.125.4,6.351.457,9.359,1.292a101.3,101.3,0,0,1,14.835,5.152c2.166.99,3.612,3.551,5.383,5.4l-.638,1.338a57.921,57.921,0,0,1-8.072-.066c-4.95-.7-9.819-2-14.773-2.661-3.77-.511-7.723-.82-11.513,2.727,1.941.909,3.191,1.6,4.517,2.1,6.968,2.614,14,5.082,20.915,7.812a22.631,22.631,0,0,1,6.219,3.686c1.021.859,1.28,2.626,1.884,3.984-1.474.372-3.032,1.245-4.408,1.021-7.348-1.2-14.6-3.052-21.982-3.915-5.132-.6-10.413-.058-15.62.167-1.218.054-2.4.9-3.6,1.38-.093.492-.182.982-.275,1.477,10.375,3.693,20.752,7.39,31.588,11.246a15.443,15.443,0,0,1-12.912,2.749c-4.9-1.021-9.747-2.282-14.662-3.237-6.884-1.338-12.712.843-16.893,6.365a56.657,56.657,0,0,0-6.269,10.851c-2.858,6.3-6.934,11.609-13.269,14.251-8.821,3.678-17.983,6.532-27.392,9.873-.924-9.487-.2-17.844,3.832-25.679,2.2-4.265,5.623-6.923,10.542-7.208,10.921-.631,18.563-5.986,23.258-15.786,4.215-8.8,10.4-16.1,17.268-22.96a34.428,34.428,0,0,0,7.429-10.032C-1590.977,1023.668-1586.4,1021.56-1571.457,1024.863Zm-33.584,17.685q3.69-5.784,7.383-11.567l.854.511q-3.44,5.94-6.876,11.88l-1.359-.824Zm90.681-85.073a47.978,47.978,0,0,0-28.82,5.915,79.007,79.007,0,0,0-36.167,40.352c-3.156,7.681-7.058,14.348-14.816,18.59-3.3,1.8-5.915,5.642-7.785,9.123a80.7,80.7,0,0,1-13.884,18.91c-5.627,5.67-10.79,11.8-16.173,17.72a24.9,24.9,0,0,1-16.915,8.59c0-7.1-.352-13.949.066-20.752,1.431-23.262,3.113-46.508,4.742-69.754q.538-7.7,1.373-15.38c.8-7.448,4.343-13.536,10.318-19.561l13.764,16.6c11.757-15.52,27.891-28.011,37.923-46.23,21.976,12.761,45.4,21.907,66.377,35.879Zm-138.007,119.137h-25.861c2.711-38.387,13.683-74.36,27.508-109.538,4.757.437,5.712,2.428,5.232,7q-3.5,33.518-6.01,67.136c-.774,10.247-.612,20.567-.862,30.853C-1652.4,1073.525-1652.366,1074.983-1652.366,1076.612Zm2.529-115.1c.476-4.123,1.229-8.218,2-13.041l10.519.97c-2.591,4.954-4.849,9.606-7.487,14.034-.468.785-2.56.971-3.794.77-.572-.094-1.342-1.833-1.238-2.735Zm65.829-43.283a5.543,5.543,0,0,1-.878,4.154,230.528,230.528,0,0,1-34.1,39.52c-7.267-9.866-15.485-17.941-29.136-16.578,2.023-.317,4.049-.631,6.478-1.01-2.015-4.552-3.9-8.814-5.789-13.079.2-.12.391-.236.583-.356,2.688,3.283,5.484,6.482,8.029,9.873,1.81,2.421,3.639,2.491,6.319,1.416,8.83-3.523,14.981-10.55,22.012-16.411,7.453-6.211,14.789-12.565,22.171-18.857q-.5-1.236-.986-2.475c.457.716.916,1.431,1.373,2.146l-.386.329C-1586.815,910.654-1585.276,914.4-1584.008,918.226Zm-81.056-95.29c-1.4-8.11,1.075-15.495,5.147-23.006,13.543,6.242,27.5,8.265,41.879,7.537a93.067,93.067,0,0,0,12.836-1.91c9.1-1.764,12.3,1.175,10.94,10.229-.321,2.143-.46,4.316-.828,6.45-.534,3.1-.321,5.461,3.485,6.47,1.246.329,2.63,2.416,2.843,3.859a19.562,19.562,0,0,1-.25,8.048c-3.709,12.886-3.736,26.143-2.677,39.16,1.055,13.033-4.748,21.866-13.811,29.473a42.193,42.193,0,0,1-28.084,10.08c-7.193-.038-12.217-3.416-14.634-10.1a70.916,70.916,0,0,1-2.666-11.413,72.356,72.356,0,0,0-9.379-24.047,79.437,79.437,0,0,1-7.151-14.932c-2.166-6.454-1.323-13.145,1.006-19.53a31.144,31.144,0,0,0,1.341-16.373Zm51.15,95c8.98-3.481,15.52-10.247,20.814-18.192.6-.9,1.18-1.818,1.81-2.7.135-.193.452-.259,1.833-1-1.3,2.533-1.988,4.188-2.936,5.681-7.748,12.246-18.946,21.146-29.713,30.452a50.635,50.635,0,0,1-8.071,6.134c-1.455.816-4.467,1.083-5.449.162-6.752-6.276-13.261-12.862-14.329-23.586,11.628,11.513,23.964,7.719,36.041,3.043Zm-50.627-33.057c-.182-3.38-.623-6.748-.928-10.121-.224-2.5-1.226-3.666-4.068-3.871a8.805,8.805,0,0,1-5.817-2.947c-4.622-6.165-5.915-13.307-4.377-20.821.963-4.719,1.891-5.357,6.7-6.435-1.6-5.546-3.466-11.041-4.722-16.672a42.8,42.8,0,0,1,1.16-22.086c1.5-4.915,4.927-8.141,10.1-8.895,3.04-.441,4.552-1.57,5.6-4.7,3.063-9.146,10.879-13.071,19.453-14.723a65.3,65.3,0,0,1,46.953,8.341c11.927,7.112,15.961,18.8,16.034,31.874.035,6.555-1.485,13.118-2.333,19.673-.163,1.269-.476,2.522-.833,4.385,3.221-.631,5.8-1.137,8.775-1.717.146,1.474.634,2.85.348,4.038-2.042,8.524-4.069,17.058-6.489,25.478-.851,2.966-3.357,3.709-6.2,1.926-1.361-.855-2.765-1.644-4.347-2.582,1.184-8.353,2.4-16.776,3.55-25.208a56.063,56.063,0,0,0,.452-6.071c.127-4.524-2.039-7.422-6.574-8.485.321-4.629.9-9.073.885-13.512-.031-7.7-3.565-10.476-11.134-9.282-16.351,2.591-32.636,3.473-48.627-2.146-1.655-.583-3.3-1.21-4.915-1.916-4.923-2.166-5.5-1.964-7.862,2.661-4.212,8.253-5.2,16.927-4.034,26.058a18.243,18.243,0,0,1-.916,8.732c-4.493,11.246-3.376,21.97,2.007,32.532,3.619,7.1,7.664,14.042,10.57,21.429,2.143,5.449,2.762,11.5,4.27,18.231-9.062-6.041-12.188-13.893-12.676-23.167Zm10.83,40.394,1.16.162c1.9,5.152,3.8,10.3,5.832,15.791-2.374.89-4.575,1.714-6.992,2.614Zm3.365,21.262c-.75,3.9-1.493,7.8-2.406,12.623-2.154-7.975-1.4-11.336,2.406-12.623Zm-7.3-12.306c1.443,11.211.483,13.455-7.3,17.043,2.463-5.744,4.648-10.849,7.3-17.044Zm-67.036,194.819c-13.427-2.406-26.843-4.884-40.27-7.325-2.661-.483-5.36-.816-7.99-1.431-3.268-.761-5.975-2.6-6.254-6.13-.862-10.929-1.916-21.881-1.976-32.822-.054-10.005,4.165-18.9,9.7-27.125,12.085-18,24.368-35.869,36.167-54.057,8.837-13.62,17.129-27.6,25.492-41.523,6.029-10.036,14.762-15.322,26.317-16.911,7.128-.982,14.1-3.125,21.2-4.757-2.537,5.677-5.852,11.6-4.6,19.12,3.38-1.988,6.35-3.732,9.4-5.527,1.992,10.507,2.839,20.249-1.357,30.6-8.492,20.934-15.063,42.575-18.389,65.048-1.207,8.164-2.293,16.359-3.72,24.492-.885,5.058-3.86,7.356-7.924,6.989-3.26-.3-4.981-1.964-5.832-5.174q-4.322-16.272-9.03-32.439c-2.359-8.028-6.5-14.823-14.162-19.024a8.988,8.988,0,0,0-9.885.182c-1.733,1.029-4.618.994-6.671.395-3.744-1.091-5.8-.7-8.976,2.456-5.035,5-5.159,9.638-2.24,15.516a23.529,23.529,0,0,1-2.6.677c-3.759.471-4.861,2.873-3.929,6.095,1.16,4.018,2.807,7.889,4.2,11.842.522,1.493.909,3.036,1.493,5.02-9.715.016-18.876.781-24.809,9.119-1.9,2.676-2.676,6.149-3.964,9.259l1.288.847c5.415-2.692,10.821-5.407,16.25-8.072a36.813,36.813,0,0,1,28.807-2q18.467,6.131,36.888,12.389a10.734,10.734,0,0,1,1.66.97c-4.285,12.669-7.986,25.381,1.844,37.521-11.762,5.545-23.583,8.024-36.113,5.781Zm24.584,1.988c6.938-3.848,12.657-4.493,14.518-1.5-5.028.521-9.773,1.008-14.514,1.5Zm12.835-10.925c-4.208-6.629-6.261-13.644-3.666-21.587,1.675-5.12,2.684-10.453,4.119-16.2a62.585,62.585,0,0,1-6.81-1.38c-9.773-3.129-19.66-5.983-29.214-9.684-14.216-5.5-27.741-4.954-40.95,2.749-1.98,1.152-4.1,2.077-6.153,3.1a5.216,5.216,0,0,1-1.033,0c6.443-10.74,16.359-11.374,28.189-10.2-1.281-4.644-2.286-8.555-3.442-12.422-1.149-3.832-2.448-7.618-3.682-11.428.433-.271.862-.546,1.292-.816,1.756,1.7,3.921,3.144,5.178,5.155,3.368,5.387,6.381,11,9.463,16.56,1.666,3,3.949,4.726,8.322,4.154a65.246,65.246,0,0,0-2.869-6.061c-4.494-7.406-9.127-14.727-13.636-22.121a23.034,23.034,0,0,1-1.74-4.1c-2.2-5.99-1.853-6.636,4.363-7.886v-4.18c5.685.209,10.3,2.425,13.257,6.822,4.877,7.255,9.193,14.885,13.752,22.357a11.452,11.452,0,0,0,3.391,3.949c-.317-6.589-3.249-12.2-6.315-17.569-3.136-5.472-7.164-10.434-10.856-15.7,2.452-2.3,4.931-1.021,7.081.217,6.424,3.7,10.295,9.487,12.318,16.495,3.11,10.782,6,21.626,9.127,32.4,1.822,6.273,3.426,7.4,10.128,7.712,13.056.612,26.115,1.166,39.175,1.75.05-.023.1-.05.151-.073.07-.012.135-.019.205-.031,1.179-1.052,2.243-2.626,3.593-2.931a27.139,27.139,0,0,0,15.078-9.6q6.347-7.559,12.657-15.144c.348.243.7.487,1.048.73-4.888,7.232-9.224,14.936-14.838,21.549-4.277,5.043-11.374,4.5-17.542,5.391-.042.042-.089.077-.131.116l-.224-.011c-10.925,5.322-12.29,15.661-13.551,26.042-.1.8-.035,1.628-.058,2.44-.193,6.2-.2,6.176-6.331,7.564-5.012,1.137-9.989,2.463-15.04,3.376a4.528,4.528,0,0,1-3.8-1.5Zm3.2,6.2c.158-.468.313-.94.471-1.408l16.169-3.944c.139.367.282.735.421,1.1-4.3,2.042-8.524,4.277-12.952,5.975-1,.387-2.717-1.1-4.107-1.721Zm362.594,9.475c-2.761,3.416-5.665,4.1-9.061,1.276-2.672-2.22-4.676-5.244-6.977-7.909.309-.344.615-.688.924-1.033,3.48.167,6.961.433,10.446.468,5.406.058,6.652-1.764,5.023-7.05-.386-1.25-.777-2.5-1.307-4.216,5.353,6.024,5.57,12.754.956,18.462Zm66.521-89.5,1.195-.116c.511,1.354,1.57,2.8,1.361,4.026-.158.932-1.934,1.59-2.989,2.371-.417-.344-.827-.688-1.241-1.036Q-1255.786,1048.909-1254.947,1046.288Zm-4.792-5.79c.406.127.812.259,1.219.391-.379,1.651-.754,3.306-1.326,5.8l-3.45-2.87,3.557-3.322Zm-15.032,1.09a8.063,8.063,0,0,1,2.731-.372,10.185,10.185,0,0,1-1.044,2.692,29.266,29.266,0,0,1-3.148,3.066c-.966-.762-1.879-1.485-2.966-2.343a44.775,44.775,0,0,1,4.427-3.043Zm-6.535,4.811c.4.333.793.673,1.191,1.01l6.516,1.18-14.951,26.777.576.278q11.091-16.36,22.243-32.818c2.213,2.529,3.79,4.339,5.91,6.768-5.275,8.783-10.991,18.3-16.707,27.814l.773.577a13.435,13.435,0,0,0,1.559-1.733q5.865-9.271,11.668-18.577c3.341-5.352,3.326-5.36,10.33-3.063q-7.175,13.475-14.286,26.835.482.267.971.534c3.4-5.332,6.787-10.658,9.989-15.682,2.049,1.257,3.964,2.433,6.2,3.8-2.1,3.631-4.149,8.1-7.081,11.884a16.594,16.594,0,0,1-7.491,5.109c-6.381,2.166-12.956,3.836-19.53,5.364-6.93,1.609-12.3-3.449-11.053-10.4,1.083-5.979,1.972-12.113,4.1-17.744,2.346-6.227,6-11.966,9.082-17.917Zm-143.137-136.566c-7.015-8.048-9.3-17.511-8.187-27.957.657-6.153-.537-8.69-6.292-11.9,1.574,3.794,2.838,6.849,4.1,9.9-.217.351-.433.7-.65,1.048-1.648-.762-3.542-1.222-4.9-2.34-4.6-3.77-7.074-8.732-5.983-14.692,1.133-6.2,2.924-12.267,4.521-18.772,6.482,2.927,5.249,10.206,10.253,14.039-.108-1.988-.24-3.388-.25-4.788-.043-5.155.634-9.866,3.271-14.734,2.95-5.445,4.3-11.854,5.785-17.979,2-8.272,5.063-11.5,13.257-12.318,11.324-1.133,22.635-2.7,33.989-3.094,17.357-.607,34.017,15.527,31.545,33.089a138.649,138.649,0,0,0-1.044,25.961c.827,16.8-5.511,31.2-13.725,45.1-2.823,4.773-6.176,9.228-9.219,13.872-6.393,9.753-22.817,14.007-32.427,6.718a40.931,40.931,0,0,0-5.623-3.059c9.3,9.9,14.321,10.469,33.143,3.844-.793,3.249-1.81,6.581-2.378,9.989-.576,3.465,1.137,5.727,4.2,7.541,18.176,10.746,33.452,24.867,46.9,41.032a25.045,25.045,0,0,1,6.01,17.651c-.22,4.978-2.293,7.777-7.185,8.156-6.47.5-12.979.583-19.476.654q-14.782.174-29.558.019a4.238,4.238,0,0,1-3.063-1.775q-24.538-42.1-48.836-84.339a9.718,9.718,0,0,1-1.125-5.7c.545-4.212,1.651-8.353,2.494-12.36,3.356,2.576,6.516,5,9.68,7.429C-1418.294,916.659-1421.423,913.3-1424.443,909.834Zm57.8,27.129c-4.316-.97-4.822-2.324-2.143-7.564.867,3.058,1.494,5.278,2.143,7.568Zm41.694,49.529c-10.288-12.782-22.646-23.281-35.722-33.031-3.04-2.27-6.122-4.486-9.111-6.818-2.924-2.274-3.782-5.051-1.879-8.211,20.029,10.879,38.746,23.5,55.07,39.288a37.779,37.779,0,0,1,9.088,14.15,234.4,234.4,0,0,1,13.033,60.485c.039.522,0,1.048,0,1.574-.325.038-.65.083-.975.12-2.993-8.21-6.1-16.378-8.949-24.635-5.217-15.093-10.326-30.2-20.557-42.919ZM-1367.087,789.5c-.317,1.083-.287,2.582-1.005,3.186-3.083,2.6-6.381,4.938-9.6,7.375-.344-.433-.692-.866-1.036-1.3.939-4.587,3.3-8.137,7.924-9.707,1.064-.357,2.468.277,3.716.452Zm-81.012,27.763c2.916-16.59,14.924-28.107,31.952-31.62,12.7-2.618,24.9-2.333,43.724.963-2.258,2.722-4.861,5.376-6.822,8.439-.833,1.307-.325,3.469-.426,5.244,1.636-.158,3.427.05,4.881-.549,4.915-2.023,8.825-5.244,10.5-10.488,13.6,1.768,21.116,9.355,23.045,24.31a266.232,266.232,0,0,1,2.4,31.565c.24,27.264-.035,54.537-.263,81.806a160.97,160.97,0,0,1-1.25,17.411c-.572,4.873-3.349,6.331-7.742,4.057a91.018,91.018,0,0,1-12.469-7.6c-7.262-5.415-8.179-13.489-2.568-21.085a108.529,108.529,0,0,0,18.257-37.316,51.445,51.445,0,0,0,1.234-10.863c.41-10.279.139-20.609,1.017-30.841,1.7-19.867-11.1-32.489-24.608-35.1a39.787,39.787,0,0,0-10.531-.383c-11.343.881-22.667,2.027-33.994,3.082-7.112.657-11.13,4.893-12.221,11.594-1.338,8.233-3.469,16.034-8.032,23.159-1.431,2.232-1.674,5.217-2.591,8.28-2.541-7.94-7.116-14.189-12.306-20.392-2.431-2.909-1.967-9.2-1.182-13.671Zm-1.957,14.684c3.411,6.539,9.1,10.867,5.519,18.52-1.583,3.384-2.27,7.208-3.179,10.882a17.347,17.347,0,0,0,10.14,20.319c2.274.936,3.082,2.173,3.166,4.385.313,8.106,1.868,15.841,6.7,22.639a4.562,4.562,0,0,1,.557,3.024c-.518,3.612-1.122,7.228-1.957,10.778-.209.9-1.314,1.67-2.154,2.313-1.137.871-2.7,1.323-3.589,2.367-5.178,6.056-10.434,12.07-15.226,18.428-4.37,5.8-11.265,10.276-21.274,12.36,6.217-42.118,8.12-84.334,21.3-126.012Zm-40.359,138.994a101.288,101.288,0,0,1,17.821-9.5c9.479-3.778,19.077-7.081,26.158-15.767,3.2,8.6,6.521,16.583,9.111,24.793,2.63,8.326,7.781,13.284,16.309,15.113a109.148,109.148,0,0,1,12.426,3.74,13.1,13.1,0,0,1,3.2,2.266l.174-.023c.3-.518.591-1.029.881-1.543a34.32,34.32,0,0,0-4.992-2.583c-5.136-1.694-10.352-3.144-15.523-4.733a13,13,0,0,1-8.984-8.651c-3.217-9.335-6.664-18.594-9.78-27.965-.5-1.524-.421-4.1.534-5.1,4.072-4.3,8.574-8.195,12.933-12.252.646.511,1.052.688,1.234,1,15.736,26.889,32.064,53.458,46.949,80.806,9.3,17.078,16.888,35.185,19.967,54.688,1.118,7.073,1.477,14.266,2.181,21.4q.406,4.124.824,8.247h1.1a25.5,25.5,0,0,0,.391-3.732c-.874-23.5-4.676-46.3-15.817-67.415-2.32-4.4-1.385-6,3.7-6.006,11.385-.027,22.774.395,34.164.642,1.625.035,3.249.158,4.877.139,10.5-.135,13.246-2.633,14.329-14.127a48.551,48.551,0,0,1,2.552,4.827c5.322,14.181,10.558,28.4,15.887,42.575.963,2.568,2.239,5.02,3.372,7.522l1.2-.267a19.437,19.437,0,0,0,.321-3.332c-1.4-19.769-3.964-39.353-10.406-58.2a59.812,59.812,0,0,0-22.43-30.149,166.481,166.481,0,0,1-15.315-12.662c12.592,1.26,25.056,2.56,36.175,10.032-.8,1.029-1.443,1.825-2.049,2.653-2.468,3.349-2.823,6.918.011,10.043a105.065,105.065,0,0,0,9.479,8.86c8.129,6.973,12.05,15.458,11.482,26.433-1.06,20.489-3.271,40.731-8.825,60.563-1.365,4.881-1.35,10.147-2.011,15.608-4.405-2.371-8.157-.464-12.364,1.583-3.318,1.613-7.529,1.75-11.366,1.86-5.53.158-11.1-.642-16.614-.341-2.51.139-4.931,1.945-8.226,3.345,1.694,1.369,2.32,1.879,3.94,3.191h-20.18c1.589-12.329-2.634-23.2-6.76-34.063-7.012-18.447-19.208-33.1-33.63-46.246a204.653,204.653,0,0,1-17.244-18.342c-3.059-3.577-1.949-5.074,2.862-5.766,3.713-.537,7.352-1.632,11.018-2.494a.222.222,0,0,1-.031-.023,122.118,122.118,0,0,0-12.213,1.5c-5.681,1.229-6.683,4.332-2.742,8.547,6.393,6.831,12.654,13.86,19.681,20,18.172,15.876,29.372,35.9,36.1,58.679,1.172,3.96,1.109,8.284,1.583,12.445.356,3.071-.87,4.4-4,3.457q-11.648-3.5-23.286-7.046c-4.915-1.508-9.765-3.2-14.7-4.644a11.714,11.714,0,0,1-7.414-6.315c-9.289-17.437-18.281-35.065-28.363-52.039-6.969-11.729-15.334-22.659-23.467-33.664-5.143-6.961-12.5-11.335-20.752-13.547-3.6-.963-7.7-.031-12.491.058,2.292-2.7,4.148-6.172,7.049-8.067Zm-32.443,66.978c-2.421-3.318-2.239-7.313-.3-10.806a47.181,47.181,0,0,1,6.864-9.982c8.782-9.127,11.76-20.106,11.374-32.362-.05-1.489-.073-2.982-.093-4.471a7.06,7.06,0,0,1,.591-1.21c5.824,25.3,5.6,49.285-6.892,73.059-4.134-5.043-8.071-9.468-11.543-14.229Zm56.965,125.27a3.56,3.56,0,0,1-2.711,1.187q-32.59.057-65.176-.042c-.24,0-.476-.2-1.114-.472,0-6.094-.286-12.073.073-18.017a39.048,39.048,0,0,1,6.381-18.6c12.271-19.5,17.911-40.982,18.706-63.918.147-4.189,1.4-8.423,2.666-12.472,3.2-10.237,6.69-20.376,9.629-29.24,1.887,27.3,12.712,53.767,22.894,80.452,4.818,12.626,8.949,25.516,13.2,38.348C-1458.568,1148.771-1461.956,1156.1-1465.893,1163.189Zm1.361,1.048c6.729-10.9,6.679-22.024,3.476-33.7q9,16.817,18.033,33.7Zm167.3-3.825c-.182,1.207-.518,2.386-.878,4.018h-4.309c-44.126,0-88.251-.062-132.378.092-4.451.016-7.313-1.717-9.216-5.275-18.455-34.488-37.3-68.865-44.791-107.859-2.858-14.878-4.757-29.941-7.05-44.927-.8-5.221-1.4-10.469-2.2-15.69-1.257-8.268,3.906-12.77,11.931-10.349,8.3,2.5,14.9,7.444,20.7,13.775,14.147,15.419,24.7,33.266,34.744,51.416,6.153,11.122,11.521,22.678,17.368,33.974a63.326,63.326,0,0,0,4.54,6.629c-2.208,2.178-.735,6.4,4.408,10.751q-2.2-4.5-4.415-8.988c.2-.352.4-.7.588-1.052,5.345,1.62,10.731,3.106,16.026,4.881,12.561,4.2,25.064,8.71,38.5,9,4.563.1,9.146-.916,13.725-.97,1.891-.028,4.738.534,5.55,1.833,4.273,6.831,8.187,13.9,11.892,21.065,1.342,2.6.155,4.292-3.141,4.339-4.684.066-9.359.518-14.042.677a12.416,12.416,0,0,1-3.09-.735,52.557,52.557,0,0,0-7.464-1.725c-16.641-1.52-31.406-7.255-43.747-18.775-2.359-2.2-5.051-4.057-7.587-6.068a9.73,9.73,0,0,0,1.435,2.792c6.965,6.636,13.912,13.156,23.382,16.444,9.444,3.283,18.505,7.425,28.873,7.476a12.866,12.866,0,0,1,11.618,7.8c3.782,8.081,10.318,11.765,18.768,13.064,4.672.72,9.3,1.8,13.9,2.885,6.179,1.457,7.312,3.224,6.36,9.493Zm3.082,3.821c-1.578-7.232-.243-10.778,4.243-11.428,5.36-.777,8.755,3.156,9.727,11.428Zm-110.991-172.668a.7.7,0,0,1-.083.008.014.014,0,0,1-.008.011A.822.822,0,0,0-1405.141,991.565Zm-.089.019-.135.035a.759.759,0,0,0,.083.062A.854.854,0,0,0-1405.23,991.584Z" transform="translate(1837.064 -769.34)"/></svg>